<svg width="103" height="21" viewBox="0 0 103 21" fill="none" xmlns="http://www.w3.org/2000/svg">
<path d="M3.04333 18.9578C3.0105 19.0984 3.00991 19.2446 3.0416 19.3854C3.0733 19.5262 3.13646 19.658 3.22636 19.771C3.31625 19.8839 3.43054 19.9751 3.56066 20.0375C3.69078 20.1 3.83336 20.1323 3.97771 20.1318C4.16701 20.1318 4.35208 20.0758 4.50958 19.9708L9.72771 16.492L14.9458 19.9708C15.1091 20.0792 15.3016 20.135 15.4975 20.1307C15.6934 20.1264 15.8833 20.0622 16.0416 19.9468C16.1999 19.8313 16.3191 19.6702 16.3831 19.485C16.4471 19.2998 16.4529 19.0994 16.3996 18.9109L14.6468 12.7775L18.9938 8.86563C19.1331 8.74027 19.2325 8.57684 19.2798 8.39558C19.3272 8.21431 19.3203 8.02314 19.2602 7.84571C19.2 7.66829 19.0891 7.51239 18.9413 7.39729C18.7935 7.2822 18.6152 7.21295 18.4284 7.19813L12.965 6.76304L10.6007 1.52959C10.5255 1.36103 10.403 1.21786 10.2481 1.11737C10.0933 1.01687 9.91263 0.963343 9.72802 0.963242C9.54341 0.96314 9.36271 1.01647 9.20774 1.11679C9.05277 1.21712 8.93014 1.36015 8.85467 1.52863L6.49046 6.76304L1.027 7.19717C0.843435 7.21171 0.667947 7.27883 0.52153 7.39049C0.375113 7.50216 0.263967 7.65364 0.201388 7.82682C0.138809 8 0.127447 8.18754 0.168662 8.36701C0.209877 8.54648 0.301924 8.71027 0.43379 8.83879L4.47221 12.7747L3.04333 18.9578ZM9.72771 4.25125L11.6846 8.58388L12.2481 8.62892H12.2491L16.0556 8.93079L12.9209 11.7521L12.9199 11.754L12.4762 12.1527L12.6401 12.7248V12.7277L13.8409 16.93L9.72771 14.1882V4.25125Z" fill="#D6A323"/>
<path d="M98.0639 19.2371C97.8061 19.2369 97.5542 19.1597 97.3405 19.0155L92.9889 16.0988C92.9674 16.084 92.942 16.0761 92.9159 16.0761C92.8899 16.0761 92.8645 16.084 92.843 16.0988L88.4914 19.0155C88.2728 19.1614 88.0151 19.2374 87.7524 19.2333C87.4897 19.2293 87.2344 19.1454 87.0204 18.9929C86.8065 18.8403 86.644 18.6263 86.5546 18.3793C86.4651 18.1322 86.453 17.8638 86.5197 17.6096L87.9489 12.5696C87.9556 12.5443 87.9548 12.5175 87.9465 12.4926C87.9382 12.4677 87.9228 12.4458 87.9022 12.4296L83.7839 9.19212C83.5671 9.03061 83.4062 8.8053 83.324 8.54778C83.2417 8.29026 83.242 8.01344 83.325 7.75614C83.408 7.49884 83.5694 7.27396 83.7867 7.11303C84.0039 6.95211 84.2661 6.8632 84.5364 6.85879L89.7864 6.66046C89.8122 6.65867 89.8369 6.64947 89.8576 6.63394C89.8783 6.61842 89.8941 6.59724 89.903 6.57296L91.7114 1.65546C91.8025 1.40616 91.9681 1.1909 92.1856 1.03881C92.4032 0.886726 92.6622 0.805161 92.9276 0.805161C93.1931 0.805161 93.4521 0.886726 93.6696 1.03881C93.8872 1.1909 94.0527 1.40616 94.1439 1.65546L95.9522 6.57296C95.9611 6.59724 95.9769 6.61842 95.9976 6.63394C96.0183 6.64947 96.0431 6.65867 96.0689 6.66046L101.319 6.85879C101.589 6.8632 101.851 6.95211 102.069 7.11303C102.286 7.27396 102.447 7.49884 102.53 7.75614C102.613 8.01344 102.614 8.29026 102.531 8.54778C102.449 8.8053 102.288 9.03061 102.071 9.19212L97.953 12.4296C97.9318 12.4453 97.9159 12.4672 97.9076 12.4922C97.8992 12.5173 97.8988 12.5443 97.9064 12.5696L99.3355 17.6096C99.3857 17.8029 99.3907 18.0052 99.3501 18.2008C99.3095 18.3963 99.2244 18.5799 99.1014 18.7373C98.9785 18.8946 98.8209 19.0216 98.641 19.1083C98.461 19.195 98.2636 19.239 98.0639 19.2371ZM92.9189 14.9088C93.1772 14.9167 93.4272 15.0021 93.6364 15.1538L97.988 18.0705C98.0101 18.0872 98.037 18.0964 98.0647 18.0966C98.0924 18.0968 98.1194 18.0881 98.1417 18.0717C98.164 18.0553 98.1804 18.0321 98.1885 18.0056C98.1965 17.9791 98.1958 17.9507 98.1864 17.9246L96.7572 12.8846C96.6869 12.6374 96.6921 12.3748 96.7721 12.1305C96.8521 11.8862 97.0034 11.6715 97.2064 11.5138L101.325 8.27629C101.347 8.26051 101.364 8.23794 101.373 8.2119C101.381 8.18586 101.381 8.15772 101.373 8.13161C101.365 8.1055 101.348 8.0828 101.326 8.06684C101.303 8.05089 101.276 8.04251 101.249 8.04296L95.9989 7.84462C95.7418 7.8346 95.4935 7.74824 95.2858 7.59656C95.078 7.44488 94.9201 7.23474 94.8322 6.99296L93.0239 2.07546C93.0157 2.04935 92.9994 2.02653 92.9774 2.01032C92.9554 1.99412 92.9287 1.98538 92.9014 1.98538C92.874 1.98538 92.8474 1.99412 92.8253 2.01032C92.8033 2.02653 92.787 2.04935 92.7789 2.07546L90.988 6.98712C90.9002 7.22891 90.7423 7.43904 90.5345 7.59073C90.3267 7.74241 90.0784 7.82877 89.8214 7.83879L84.5714 8.03712C84.5439 8.03668 84.517 8.04505 84.4947 8.06101C84.4724 8.07696 84.4557 8.09966 84.4472 8.12577C84.4388 8.15188 84.4389 8.18003 84.4476 8.20607C84.4563 8.23211 84.4731 8.25468 84.4955 8.27046L88.6197 11.5138C88.8221 11.672 88.9728 11.8868 89.0528 12.1309C89.1328 12.375 89.1384 12.6373 89.0689 12.8846L87.6455 17.9246C87.637 17.9499 87.637 17.9772 87.6454 18.0024C87.6538 18.0277 87.6703 18.0495 87.6922 18.0646C87.7133 18.0827 87.7402 18.0926 87.768 18.0926C87.7958 18.0926 87.8227 18.0827 87.8439 18.0646L92.1955 15.148C92.4082 15.0069 92.6578 14.9318 92.913 14.9321L92.9189 14.9088Z" fill="#D6A323"/>
<path d="M77.3631 19.3952C77.1053 19.395 76.8535 19.3178 76.6398 19.1735L72.2881 16.2569C72.2667 16.2421 72.2413 16.2341 72.2152 16.2341C72.1892 16.2341 72.1637 16.2421 72.1423 16.2569L67.7906 19.1735C67.5721 19.3194 67.3144 19.3954 67.0516 19.3914C66.7889 19.3874 66.5336 19.3035 66.3197 19.151C66.1057 18.9984 65.9433 18.7844 65.8538 18.5373C65.7644 18.2903 65.7522 18.0218 65.819 17.7677L67.2481 12.7277C67.2549 12.7024 67.2541 12.6756 67.2458 12.6507C67.2375 12.6258 67.2221 12.6039 67.2015 12.5877L63.0831 9.35021C62.8663 9.18869 62.7055 8.96338 62.6232 8.70586C62.5409 8.44834 62.5413 8.17152 62.6243 7.91422C62.7073 7.65692 62.8687 7.43204 63.0859 7.27112C63.3032 7.11019 63.5653 7.02129 63.8356 7.01687L69.0856 6.81854C69.1114 6.81676 69.1362 6.80755 69.1569 6.79202C69.1776 6.7765 69.1933 6.75532 69.2023 6.73104L71.0106 1.81354C71.1018 1.56424 71.2673 1.34898 71.4849 1.19689C71.7024 1.04481 71.9614 0.963242 72.2269 0.963242C72.4923 0.963242 72.7513 1.04481 72.9689 1.19689C73.1864 1.34898 73.352 1.56424 73.4431 1.81354L75.2515 6.73104C75.2604 6.75532 75.2762 6.7765 75.2969 6.79202C75.3176 6.80755 75.3423 6.81676 75.3681 6.81854L80.6181 7.01687C80.8884 7.02129 81.1506 7.11019 81.3678 7.27112C81.5851 7.43204 81.7465 7.65692 81.8295 7.91422C81.9124 8.17152 81.9128 8.44834 81.8305 8.70586C81.7482 8.96338 81.5874 9.18869 81.3706 9.35021L77.2523 12.5877C77.231 12.6034 77.2152 12.6253 77.2068 12.6503C77.1985 12.6754 77.198 12.7024 77.2056 12.7277L78.6348 17.7677C78.6849 17.961 78.6899 18.1633 78.6493 18.3588C78.6087 18.5544 78.5237 18.738 78.4007 18.8954C78.2777 19.0527 78.1202 19.1797 77.9402 19.2664C77.7603 19.353 77.5628 19.3971 77.3631 19.3952ZM72.2181 15.0669C72.4764 15.0748 72.7264 15.1601 72.9356 15.3119L77.2873 18.2285C77.3093 18.2453 77.3362 18.2545 77.3639 18.2547C77.3916 18.2549 77.4186 18.2462 77.441 18.2298C77.4633 18.2133 77.4797 18.1902 77.4877 18.1637C77.4958 18.1371 77.495 18.1088 77.4856 18.0827L76.0565 13.0427C75.9861 12.7955 75.9913 12.5329 76.0714 12.2886C76.1514 12.0443 76.3026 11.8296 76.5056 11.6719L80.624 8.43437C80.6464 8.41859 80.6632 8.39602 80.6719 8.36998C80.6806 8.34394 80.6807 8.3158 80.6722 8.28969C80.6638 8.26358 80.6471 8.24088 80.6248 8.22492C80.6024 8.20897 80.5756 8.2006 80.5481 8.20104L75.2981 8.0027C75.0411 7.99268 74.7928 7.90633 74.585 7.75464C74.3772 7.60296 74.2193 7.39282 74.1315 7.15104L72.3231 2.23354C72.315 2.20743 72.2987 2.18461 72.2766 2.1684C72.2546 2.1522 72.228 2.14346 72.2006 2.14346C72.1733 2.14346 72.1466 2.1522 72.1246 2.1684C72.1026 2.18461 72.0863 2.20743 72.0781 2.23354L70.2873 7.1452C70.1994 7.38699 70.0415 7.59713 69.8337 7.74881C69.6259 7.90049 69.3777 7.98685 69.1206 7.99687L63.8706 8.1952C63.8432 8.19476 63.8163 8.20313 63.794 8.21909C63.7716 8.23505 63.755 8.25775 63.7465 8.28385C63.738 8.30996 63.7381 8.33811 63.7468 8.36415C63.7555 8.39019 63.7723 8.41276 63.7948 8.42854L67.919 11.6719C68.1213 11.8301 68.2721 12.0449 68.3521 12.289C68.4321 12.5331 68.4376 12.7954 68.3681 13.0427L66.9448 18.0827C66.9363 18.1079 66.9363 18.1353 66.9447 18.1605C66.9531 18.1858 66.9695 18.2076 66.9915 18.2227C67.0126 18.2408 67.0395 18.2507 67.0673 18.2507C67.0951 18.2507 67.122 18.2408 67.1431 18.2227L71.4948 15.306C71.7075 15.165 71.9571 15.0899 72.2123 15.0902L72.2181 15.0669Z" fill="#D6A323"/>
<path d="M56.5139 19.3952C56.2561 19.395 56.0042 19.3178 55.7905 19.1736L51.4389 16.2569C51.4174 16.2421 51.392 16.2342 51.366 16.2342C51.3399 16.2342 51.3145 16.2421 51.293 16.2569L46.9414 19.1736C46.7229 19.3195 46.4651 19.3954 46.2024 19.3914C45.9397 19.3874 45.6844 19.3035 45.4704 19.151C45.2565 18.9984 45.094 18.7844 45.0046 18.5374C44.9152 18.2903 44.903 18.0219 44.9697 17.7677L46.3989 12.7277C46.4056 12.7024 46.4048 12.6756 46.3965 12.6507C46.3882 12.6258 46.3728 12.6039 46.3522 12.5877L42.2339 9.35022C42.0171 9.18871 41.8563 8.9634 41.774 8.70588C41.6917 8.44835 41.6921 8.17154 41.775 7.91424C41.858 7.65694 42.0194 7.43206 42.2367 7.27113C42.4539 7.1102 42.7161 7.0213 42.9864 7.01689L48.2364 6.81855C48.2622 6.81677 48.2869 6.80756 48.3076 6.79204C48.3283 6.77651 48.3441 6.75533 48.353 6.73105L50.1614 1.81355C50.2525 1.56426 50.4181 1.349 50.6356 1.19691C50.8532 1.04482 51.1122 0.963257 51.3776 0.963257C51.6431 0.963257 51.9021 1.04482 52.1196 1.19691C52.3372 1.349 52.5027 1.56426 52.5939 1.81355L54.4022 6.73105C54.4111 6.75533 54.4269 6.77651 54.4476 6.79204C54.4683 6.80756 54.4931 6.81677 54.5189 6.81855L59.7689 7.01689C60.0392 7.0213 60.3013 7.1102 60.5186 7.27113C60.7358 7.43206 60.8972 7.65694 60.9802 7.91424C61.0632 8.17154 61.0636 8.44835 60.9813 8.70588C60.899 8.9634 60.7382 9.18871 60.5214 9.35022L56.403 12.5877C56.3818 12.6034 56.3659 12.6253 56.3576 12.6503C56.3492 12.6754 56.3488 12.7024 56.3564 12.7277L57.7855 17.7677C57.8357 17.961 57.8407 18.1633 57.8001 18.3589C57.7595 18.5544 57.6744 18.738 57.5514 18.8954C57.4285 19.0527 57.2709 19.1797 57.091 19.2664C56.9111 19.3531 56.7136 19.3971 56.5139 19.3952ZM51.3689 15.0669C51.6272 15.0748 51.8772 15.1601 52.0864 15.3119L56.438 18.2286C56.4601 18.2453 56.487 18.2545 56.5147 18.2547C56.5424 18.2549 56.5694 18.2462 56.5917 18.2298C56.614 18.2134 56.6304 18.1902 56.6385 18.1637C56.6465 18.1372 56.6458 18.1088 56.6364 18.0827L55.2072 13.0427C55.1369 12.7955 55.1421 12.5329 55.2221 12.2886C55.3021 12.0443 55.4534 11.8296 55.6564 11.6719L59.7747 8.43439C59.7972 8.41861 59.814 8.39604 59.8227 8.37C59.8314 8.34396 59.8315 8.31581 59.823 8.2897C59.8145 8.26359 59.7979 8.24089 59.7755 8.22494C59.7532 8.20898 59.7263 8.20061 59.6989 8.20105L54.4489 8.00272C54.1918 7.9927 53.9436 7.90634 53.7358 7.75466C53.528 7.60297 53.3701 7.39284 53.2822 7.15105L51.4739 2.23355C51.4657 2.20744 51.4494 2.18462 51.4274 2.16842C51.4054 2.15221 51.3787 2.14347 51.3514 2.14347C51.324 2.14347 51.2974 2.15221 51.2753 2.16842C51.2533 2.18462 51.237 2.20744 51.2289 2.23355L49.438 7.14522C49.3502 7.38701 49.1923 7.59714 48.9845 7.74882C48.7767 7.90051 48.5284 7.98687 48.2714 7.99689L43.0214 8.19522C42.9939 8.19478 42.9671 8.20315 42.9447 8.2191C42.9224 8.23506 42.9057 8.25776 42.8973 8.28387C42.8888 8.30998 42.8889 8.33812 42.8976 8.36416C42.9063 8.39021 42.9231 8.41277 42.9455 8.42855L47.0697 11.6719C47.2721 11.8301 47.4229 12.0449 47.5028 12.289C47.5828 12.5331 47.5884 12.7954 47.5189 13.0427L46.0955 18.0827C46.087 18.108 46.087 18.1353 46.0954 18.1605C46.1038 18.1858 46.1203 18.2076 46.1422 18.2227C46.1633 18.2408 46.1902 18.2507 46.218 18.2507C46.2459 18.2507 46.2727 18.2408 46.2939 18.2227L50.6455 15.3061C50.8582 15.165 51.1078 15.0899 51.363 15.0902L51.3689 15.0669Z" fill="#D6A323"/>
<path d="M36.0062 19.3952C35.7484 19.395 35.4965 19.3178 35.2829 19.1736L30.9312 16.2569C30.9098 16.2421 30.8843 16.2342 30.8583 16.2342C30.8322 16.2342 30.8068 16.2421 30.7854 16.2569L26.4337 19.1736C26.2152 19.3195 25.9574 19.3954 25.6947 19.3914C25.432 19.3874 25.1767 19.3035 24.9628 19.151C24.7488 18.9984 24.5863 18.7844 24.4969 18.5374C24.4075 18.2903 24.3953 18.0219 24.462 17.7677L25.8912 12.7277C25.8979 12.7024 25.8971 12.6756 25.8888 12.6507C25.8805 12.6258 25.8651 12.6039 25.8445 12.5877L21.7262 9.35022C21.5094 9.18871 21.3486 8.9634 21.2663 8.70588C21.184 8.44835 21.1844 8.17154 21.2673 7.91424C21.3503 7.65694 21.5117 7.43206 21.729 7.27113C21.9462 7.1102 22.2084 7.0213 22.4787 7.01689L27.7287 6.81855C27.7545 6.81677 27.7792 6.80756 27.7999 6.79204C27.8206 6.77651 27.8364 6.75533 27.8454 6.73105L29.6537 1.81355C29.7448 1.56426 29.9104 1.349 30.1279 1.19691C30.3455 1.04482 30.6045 0.963257 30.8699 0.963257C31.1354 0.963257 31.3944 1.04482 31.6119 1.19691C31.8295 1.349 31.995 1.56426 32.0862 1.81355L33.8945 6.73105C33.9035 6.75533 33.9192 6.77651 33.9399 6.79204C33.9606 6.80756 33.9854 6.81677 34.0112 6.81855L39.2612 7.01689C39.5315 7.0213 39.7937 7.1102 40.0109 7.27113C40.2281 7.43206 40.3896 7.65694 40.4725 7.91424C40.5555 8.17154 40.5559 8.44835 40.4736 8.70588C40.3913 8.9634 40.2305 9.18871 40.0137 9.35022L35.8954 12.5877C35.8741 12.6034 35.8582 12.6253 35.8499 12.6503C35.8415 12.6754 35.8411 12.7024 35.8487 12.7277L37.2779 17.7677C37.328 17.961 37.333 18.1633 37.2924 18.3589C37.2518 18.5544 37.1667 18.738 37.0438 18.8954C36.9208 19.0527 36.7632 19.1797 36.5833 19.2664C36.4034 19.3531 36.2059 19.3971 36.0062 19.3952ZM30.8612 15.0669C31.1195 15.0748 31.3695 15.1601 31.5787 15.3119L35.9304 18.2286C35.9524 18.2453 35.9793 18.2545 36.007 18.2547C36.0347 18.2549 36.0617 18.2462 36.084 18.2298C36.1063 18.2134 36.1228 18.1902 36.1308 18.1637C36.1389 18.1372 36.1381 18.1088 36.1287 18.0827L34.6995 13.0427C34.6292 12.7955 34.6344 12.5329 34.7144 12.2886C34.7945 12.0443 34.9457 11.8296 35.1487 11.6719L39.267 8.43439C39.2895 8.41861 39.3063 8.39604 39.315 8.37C39.3237 8.34396 39.3238 8.31581 39.3153 8.2897C39.3068 8.26359 39.2902 8.24089 39.2678 8.22494C39.2455 8.20898 39.2186 8.20061 39.1912 8.20105L33.9412 8.00272C33.6841 7.9927 33.4359 7.90634 33.2281 7.75466C33.0203 7.60297 32.8624 7.39284 32.7745 7.15105L30.9662 2.23355C30.958 2.20744 30.9418 2.18462 30.9197 2.16842C30.8977 2.15221 30.871 2.14347 30.8437 2.14347C30.8163 2.14347 30.7897 2.15221 30.7677 2.16842C30.7456 2.18462 30.7293 2.20744 30.7212 2.23355L28.9304 7.14522C28.8425 7.38701 28.6846 7.59714 28.4768 7.74882C28.269 7.90051 28.0208 7.98687 27.7637 7.99689L22.5137 8.19522C22.4862 8.19478 22.4594 8.20315 22.437 8.2191C22.4147 8.23506 22.3981 8.25776 22.3896 8.28387C22.3811 8.30998 22.3812 8.33812 22.3899 8.36416C22.3986 8.39021 22.4154 8.41277 22.4379 8.42855L26.562 11.6719C26.7644 11.8301 26.9152 12.0449 26.9952 12.289C27.0751 12.5331 27.0807 12.7954 27.0112 13.0427L25.5879 18.0827C25.5794 18.108 25.5793 18.1353 25.5877 18.1605C25.5962 18.1858 25.6126 18.2076 25.6345 18.2227C25.6557 18.2408 25.6825 18.2507 25.7104 18.2507C25.7382 18.2507 25.7651 18.2408 25.7862 18.2227L30.1379 15.3061C30.3505 15.165 30.6001 15.0899 30.8554 15.0902L30.8612 15.0669Z" fill="#D6A323"/>
</svg>
