<svg width="103" height="19" viewBox="0 0 103 19" fill="none" xmlns="http://www.w3.org/2000/svg">
<path d="M98.0639 18.433C97.8061 18.4328 97.5542 18.3556 97.3405 18.2113L92.9889 15.2947C92.9674 15.2799 92.942 15.2719 92.9159 15.2719C92.8899 15.2719 92.8645 15.2799 92.843 15.2947L88.4914 18.2113C88.2728 18.3573 88.0151 18.4332 87.7524 18.4292C87.4897 18.4252 87.2344 18.3413 87.0204 18.1888C86.8065 18.0362 86.644 17.8222 86.5546 17.5751C86.4651 17.3281 86.453 17.0597 86.5197 16.8055L87.9489 11.7655C87.9556 11.7402 87.9548 11.7134 87.9465 11.6885C87.9382 11.6636 87.9228 11.6417 87.9022 11.6255L83.7839 8.38801C83.5671 8.2265 83.4062 8.00119 83.324 7.74366C83.2417 7.48614 83.242 7.20932 83.325 6.95202C83.408 6.69472 83.5694 6.46985 83.7867 6.30892C84.0039 6.14799 84.2661 6.05909 84.5364 6.05468L89.7864 5.85634C89.8122 5.85456 89.8369 5.84535 89.8576 5.82983C89.8783 5.8143 89.8941 5.79312 89.903 5.76884L91.7114 0.851342C91.8025 0.602048 91.9681 0.386786 92.1856 0.234698C92.4032 0.0826106 92.6622 0.00104523 92.9276 0.00104523C93.1931 0.00104523 93.4521 0.0826106 93.6696 0.234698C93.8872 0.386786 94.0527 0.602048 94.1439 0.851342L95.9522 5.76884C95.9611 5.79312 95.9769 5.8143 95.9976 5.82983C96.0183 5.84535 96.0431 5.85456 96.0689 5.85634L101.319 6.05468C101.589 6.05909 101.851 6.14799 102.069 6.30892C102.286 6.46985 102.447 6.69472 102.53 6.95202C102.613 7.20932 102.614 7.48614 102.531 7.74366C102.449 8.00119 102.288 8.2265 102.071 8.38801L97.953 11.6255C97.9318 11.6412 97.9159 11.6631 97.9076 11.6881C97.8992 11.7132 97.8988 11.7402 97.9064 11.7655L99.3355 16.8055C99.3857 16.9988 99.3907 17.2011 99.3501 17.3967C99.3095 17.5922 99.2244 17.7758 99.1014 17.9332C98.9785 18.0905 98.8209 18.2175 98.641 18.3042C98.461 18.3908 98.2636 18.4349 98.0639 18.433ZM92.9189 14.1047C93.1772 14.1126 93.4272 14.1979 93.6364 14.3497L97.988 17.2663C98.0101 17.2831 98.037 17.2923 98.0647 17.2925C98.0924 17.2927 98.1194 17.284 98.1417 17.2676C98.164 17.2512 98.1804 17.228 98.1885 17.2015C98.1965 17.175 98.1958 17.1466 98.1864 17.1205L96.7572 12.0805C96.6869 11.8333 96.6921 11.5707 96.7721 11.3264C96.8521 11.0821 97.0034 10.8674 97.2064 10.7097L101.325 7.47218C101.347 7.4564 101.364 7.43383 101.373 7.40779C101.381 7.38174 101.381 7.3536 101.373 7.32749C101.365 7.30138 101.348 7.27868 101.326 7.26273C101.303 7.24677 101.276 7.2384 101.249 7.23884L95.9989 7.04051C95.7418 7.03049 95.4935 6.94413 95.2858 6.79245C95.078 6.64076 94.9201 6.43063 94.8322 6.18884L93.0239 1.27134C93.0157 1.24523 92.9994 1.22241 92.9774 1.20621C92.9554 1.19 92.9287 1.18126 92.9014 1.18126C92.874 1.18126 92.8474 1.19 92.8253 1.20621C92.8033 1.22241 92.787 1.24523 92.7789 1.27134L90.988 6.18301C90.9002 6.42479 90.7423 6.63493 90.5345 6.78661C90.3267 6.9383 90.0784 7.02465 89.8214 7.03468L84.5714 7.23301C84.5439 7.23257 84.517 7.24094 84.4947 7.25689C84.4724 7.27285 84.4557 7.29555 84.4472 7.32166C84.4388 7.34777 84.4389 7.37591 84.4476 7.40195C84.4563 7.42799 84.4731 7.45056 84.4955 7.46634L88.6197 10.7097C88.8221 10.8679 88.9728 11.0827 89.0528 11.3268C89.1328 11.5709 89.1384 11.8332 89.0689 12.0805L87.6455 17.1205C87.637 17.1457 87.637 17.1731 87.6454 17.1983C87.6538 17.2236 87.6703 17.2454 87.6922 17.2605C87.7133 17.2786 87.7402 17.2885 87.768 17.2885C87.7958 17.2885 87.8227 17.2786 87.8439 17.2605L92.1955 14.3438C92.4082 14.2028 92.6578 14.1277 92.913 14.128L92.9189 14.1047Z" fill="#D6A323"/>
<path d="M77.3631 18.5911C77.1053 18.5909 76.8535 18.5137 76.6398 18.3694L72.2881 15.4528C72.2667 15.438 72.2413 15.43 72.2152 15.43C72.1892 15.43 72.1637 15.438 72.1423 15.4528L67.7906 18.3694C67.5721 18.5153 67.3144 18.5913 67.0516 18.5873C66.7889 18.5833 66.5336 18.4994 66.3197 18.3469C66.1057 18.1943 65.9433 17.9803 65.8538 17.7332C65.7644 17.4862 65.7522 17.2177 65.819 16.9636L67.2481 11.9236C67.2549 11.8983 67.2541 11.8715 67.2458 11.8466C67.2375 11.8217 67.2221 11.7998 67.2015 11.7836L63.0831 8.5461C62.8663 8.38459 62.7055 8.15928 62.6232 7.90175C62.5409 7.64423 62.5413 7.36741 62.6243 7.11011C62.7073 6.85281 62.8687 6.62793 63.0859 6.46701C63.3032 6.30608 63.5653 6.21718 63.8356 6.21276L69.0856 6.01443C69.1114 6.01265 69.1362 6.00344 69.1569 5.98792C69.1776 5.97239 69.1933 5.95121 69.2023 5.92693L71.0106 1.00943C71.1018 0.760137 71.2673 0.544874 71.4849 0.392787C71.7024 0.240699 71.9614 0.159134 72.2269 0.159134C72.4923 0.159134 72.7513 0.240699 72.9689 0.392787C73.1864 0.544874 73.352 0.760137 73.4431 1.00943L75.2515 5.92693C75.2604 5.95121 75.2762 5.97239 75.2969 5.98792C75.3176 6.00344 75.3423 6.01265 75.3681 6.01443L80.6181 6.21276C80.8884 6.21718 81.1506 6.30608 81.3678 6.46701C81.5851 6.62793 81.7465 6.85281 81.8295 7.11011C81.9124 7.36741 81.9128 7.64423 81.8305 7.90175C81.7482 8.15928 81.5874 8.38459 81.3706 8.5461L77.2523 11.7836C77.231 11.7993 77.2152 11.8212 77.2068 11.8462C77.1985 11.8713 77.198 11.8983 77.2056 11.9236L78.6348 16.9636C78.6849 17.1569 78.6899 17.3592 78.6493 17.5547C78.6087 17.7503 78.5237 17.9339 78.4007 18.0912C78.2777 18.2486 78.1202 18.3756 77.9402 18.4623C77.7603 18.5489 77.5628 18.593 77.3631 18.5911ZM72.2181 14.2628C72.4764 14.2707 72.7264 14.356 72.9356 14.5078L77.2873 17.4244C77.3093 17.4412 77.3362 17.4504 77.3639 17.4506C77.3916 17.4508 77.4186 17.4421 77.441 17.4256C77.4633 17.4092 77.4797 17.3861 77.4877 17.3595C77.4958 17.333 77.495 17.3046 77.4856 17.2786L76.0565 12.2386C75.9861 11.9914 75.9913 11.7287 76.0714 11.4845C76.1514 11.2402 76.3026 11.0254 76.5056 10.8678L80.624 7.63026C80.6464 7.61448 80.6632 7.59192 80.6719 7.56587C80.6806 7.53983 80.6807 7.51169 80.6722 7.48558C80.6638 7.45947 80.6471 7.43677 80.6248 7.42081C80.6024 7.40486 80.5756 7.39649 80.5481 7.39693L75.2981 7.1986C75.0411 7.18858 74.7928 7.10222 74.585 6.95053C74.3772 6.79885 74.2193 6.58872 74.1315 6.34693L72.3231 1.42943C72.315 1.40332 72.2987 1.3805 72.2766 1.36429C72.2546 1.34809 72.228 1.33935 72.2006 1.33935C72.1733 1.33935 72.1466 1.34809 72.1246 1.36429C72.1026 1.3805 72.0863 1.40332 72.0781 1.42943L70.2873 6.3411C70.1994 6.58288 70.0415 6.79302 69.8337 6.9447C69.6259 7.09638 69.3777 7.18274 69.1206 7.19276L63.8706 7.3911C63.8432 7.39065 63.8163 7.39903 63.794 7.41498C63.7716 7.43094 63.755 7.45364 63.7465 7.47975C63.738 7.50586 63.7381 7.534 63.7468 7.56004C63.7555 7.58608 63.7723 7.60865 63.7948 7.62443L67.919 10.8678C68.1213 11.026 68.2721 11.2407 68.3521 11.4848C68.4321 11.7289 68.4376 11.9913 68.3681 12.2386L66.9448 17.2786C66.9363 17.3038 66.9363 17.3312 66.9447 17.3564C66.9531 17.3817 66.9695 17.4035 66.9915 17.4186C67.0126 17.4367 67.0395 17.4466 67.0673 17.4466C67.0951 17.4466 67.122 17.4367 67.1431 17.4186L71.4948 14.5019C71.7075 14.3609 71.9571 14.2858 72.2123 14.2861L72.2181 14.2628Z" fill="#D6A323"/>
<path d="M18.5528 6.53062L12.85 5.70181L10.3007 0.533549C10.2311 0.392045 10.1165 0.277494 9.97502 0.207865C9.62013 0.0326698 9.18888 0.178666 9.01144 0.533549L6.46213 5.70181L0.759294 6.53062C0.602067 6.55308 0.458317 6.6272 0.348258 6.73951C0.215204 6.87626 0.141884 7.06025 0.144411 7.25104C0.146938 7.44182 0.225105 7.6238 0.361735 7.75699L4.48781 11.7797L3.513 17.4601C3.49015 17.5922 3.50477 17.7281 3.55521 17.8524C3.60566 17.9767 3.68991 18.0843 3.79841 18.1631C3.90691 18.2419 4.03533 18.2887 4.16909 18.2983C4.30285 18.3078 4.43661 18.2797 4.55519 18.217L9.65607 15.5352L14.757 18.217C14.8962 18.2912 15.0579 18.3159 15.2129 18.2889C15.6037 18.2215 15.8665 17.8509 15.7991 17.4601L14.8243 11.7797L18.9504 7.75699C19.0627 7.64693 19.1368 7.50318 19.1593 7.34595C19.2199 6.95288 18.9459 6.58902 18.5528 6.53062Z" fill="#D6A323"/>
<path d="M56.5139 18.5911C56.2561 18.5909 56.0042 18.5137 55.7905 18.3694L51.4389 15.4528C51.4174 15.438 51.392 15.43 51.366 15.43C51.3399 15.43 51.3145 15.438 51.293 15.4528L46.9414 18.3694C46.7229 18.5153 46.4651 18.5913 46.2024 18.5873C45.9397 18.5833 45.6844 18.4994 45.4704 18.3469C45.2565 18.1943 45.094 17.9803 45.0046 17.7332C44.9152 17.4862 44.903 17.2177 44.9697 16.9636L46.3989 11.9236C46.4056 11.8983 46.4048 11.8715 46.3965 11.8466C46.3882 11.8217 46.3728 11.7998 46.3522 11.7836L42.2339 8.5461C42.0171 8.38459 41.8563 8.15928 41.774 7.90175C41.6917 7.64423 41.6921 7.36741 41.775 7.11011C41.858 6.85281 42.0194 6.62793 42.2367 6.46701C42.4539 6.30608 42.7161 6.21718 42.9864 6.21276L48.2364 6.01443C48.2622 6.01265 48.2869 6.00344 48.3076 5.98792C48.3283 5.97239 48.3441 5.95121 48.353 5.92693L50.1614 1.00943C50.2525 0.760137 50.4181 0.544874 50.6356 0.392787C50.8532 0.240699 51.1122 0.159134 51.3776 0.159134C51.6431 0.159134 51.9021 0.240699 52.1196 0.392787C52.3372 0.544874 52.5027 0.760137 52.5939 1.00943L54.4022 5.92693C54.4111 5.95121 54.4269 5.97239 54.4476 5.98792C54.4683 6.00344 54.4931 6.01265 54.5189 6.01443L59.7689 6.21276C60.0392 6.21718 60.3013 6.30608 60.5186 6.46701C60.7358 6.62793 60.8972 6.85281 60.9802 7.11011C61.0632 7.36741 61.0636 7.64423 60.9813 7.90175C60.899 8.15928 60.7382 8.38459 60.5214 8.5461L56.403 11.7836C56.3818 11.7993 56.3659 11.8212 56.3576 11.8462C56.3492 11.8713 56.3488 11.8983 56.3564 11.9236L57.7855 16.9636C57.8357 17.1569 57.8407 17.3592 57.8001 17.5547C57.7595 17.7503 57.6744 17.9339 57.5514 18.0912C57.4285 18.2486 57.2709 18.3756 57.091 18.4623C56.9111 18.5489 56.7136 18.593 56.5139 18.5911ZM51.3689 14.2628C51.6272 14.2707 51.8772 14.356 52.0864 14.5078L56.438 17.4244C56.4601 17.4412 56.487 17.4504 56.5147 17.4506C56.5424 17.4508 56.5694 17.4421 56.5917 17.4256C56.614 17.4092 56.6304 17.3861 56.6385 17.3595C56.6465 17.333 56.6458 17.3046 56.6364 17.2786L55.2072 12.2386C55.1369 11.9914 55.1421 11.7287 55.2221 11.4845C55.3021 11.2402 55.4534 11.0254 55.6564 10.8678L59.7747 7.63026C59.7972 7.61448 59.814 7.59192 59.8227 7.56587C59.8314 7.53983 59.8315 7.51169 59.823 7.48558C59.8145 7.45947 59.7979 7.43677 59.7755 7.42081C59.7532 7.40486 59.7263 7.39649 59.6989 7.39693L54.4489 7.1986C54.1918 7.18858 53.9436 7.10222 53.7358 6.95053C53.528 6.79885 53.3701 6.58872 53.2822 6.34693L51.4739 1.42943C51.4657 1.40332 51.4494 1.3805 51.4274 1.36429C51.4054 1.34809 51.3787 1.33935 51.3514 1.33935C51.324 1.33935 51.2974 1.34809 51.2753 1.36429C51.2533 1.3805 51.237 1.40332 51.2289 1.42943L49.438 6.3411C49.3502 6.58288 49.1923 6.79302 48.9845 6.9447C48.7767 7.09638 48.5284 7.18274 48.2714 7.19276L43.0214 7.3911C42.9939 7.39065 42.9671 7.39903 42.9447 7.41498C42.9224 7.43094 42.9057 7.45364 42.8973 7.47975C42.8888 7.50586 42.8889 7.534 42.8976 7.56004C42.9063 7.58608 42.9231 7.60865 42.9455 7.62443L47.0697 10.8678C47.2721 11.026 47.4229 11.2407 47.5028 11.4848C47.5828 11.7289 47.5884 11.9913 47.5189 12.2386L46.0955 17.2786C46.087 17.3038 46.087 17.3312 46.0954 17.3564C46.1038 17.3817 46.1203 17.4035 46.1422 17.4186C46.1633 17.4367 46.1902 17.4466 46.218 17.4466C46.2459 17.4466 46.2727 17.4367 46.2939 17.4186L50.6455 14.5019C50.8582 14.3609 51.1078 14.2858 51.363 14.2861L51.3689 14.2628Z" fill="#D6A323"/>
<path d="M36.0062 18.5911C35.7484 18.5909 35.4965 18.5137 35.2829 18.3694L30.9312 15.4528C30.9098 15.438 30.8843 15.43 30.8583 15.43C30.8322 15.43 30.8068 15.438 30.7854 15.4528L26.4337 18.3694C26.2152 18.5153 25.9574 18.5913 25.6947 18.5873C25.432 18.5833 25.1767 18.4994 24.9628 18.3469C24.7488 18.1943 24.5863 17.9803 24.4969 17.7332C24.4075 17.4862 24.3953 17.2177 24.462 16.9636L25.8912 11.9236C25.8979 11.8983 25.8971 11.8715 25.8888 11.8466C25.8805 11.8217 25.8651 11.7998 25.8445 11.7836L21.7262 8.5461C21.5094 8.38459 21.3486 8.15928 21.2663 7.90175C21.184 7.64423 21.1844 7.36741 21.2673 7.11011C21.3503 6.85281 21.5117 6.62793 21.729 6.46701C21.9462 6.30608 22.2084 6.21718 22.4787 6.21276L27.7287 6.01443C27.7545 6.01265 27.7792 6.00344 27.7999 5.98792C27.8206 5.97239 27.8364 5.95121 27.8454 5.92693L29.6537 1.00943C29.7448 0.760137 29.9104 0.544874 30.1279 0.392787C30.3455 0.240699 30.6045 0.159134 30.8699 0.159134C31.1354 0.159134 31.3944 0.240699 31.6119 0.392787C31.8295 0.544874 31.995 0.760137 32.0862 1.00943L33.8945 5.92693C33.9035 5.95121 33.9192 5.97239 33.9399 5.98792C33.9606 6.00344 33.9854 6.01265 34.0112 6.01443L39.2612 6.21276C39.5315 6.21718 39.7937 6.30608 40.0109 6.46701C40.2281 6.62793 40.3896 6.85281 40.4725 7.11011C40.5555 7.36741 40.5559 7.64423 40.4736 7.90175C40.3913 8.15928 40.2305 8.38459 40.0137 8.5461L35.8954 11.7836C35.8741 11.7993 35.8582 11.8212 35.8499 11.8462C35.8415 11.8713 35.8411 11.8983 35.8487 11.9236L37.2779 16.9636C37.328 17.1569 37.333 17.3592 37.2924 17.5547C37.2518 17.7503 37.1667 17.9339 37.0438 18.0912C36.9208 18.2486 36.7632 18.3756 36.5833 18.4623C36.4034 18.5489 36.2059 18.593 36.0062 18.5911ZM30.8612 14.2628C31.1195 14.2707 31.3695 14.356 31.5787 14.5078L35.9304 17.4244C35.9524 17.4412 35.9793 17.4504 36.007 17.4506C36.0347 17.4508 36.0617 17.4421 36.084 17.4256C36.1063 17.4092 36.1228 17.3861 36.1308 17.3595C36.1389 17.333 36.1381 17.3046 36.1287 17.2786L34.6995 12.2386C34.6292 11.9914 34.6344 11.7287 34.7144 11.4845C34.7945 11.2402 34.9457 11.0254 35.1487 10.8678L39.267 7.63026C39.2895 7.61448 39.3063 7.59192 39.315 7.56587C39.3237 7.53983 39.3238 7.51169 39.3153 7.48558C39.3068 7.45947 39.2902 7.43677 39.2678 7.42081C39.2455 7.40486 39.2186 7.39649 39.1912 7.39693L33.9412 7.1986C33.6841 7.18858 33.4359 7.10222 33.2281 6.95053C33.0203 6.79885 32.8624 6.58872 32.7745 6.34693L30.9662 1.42943C30.958 1.40332 30.9418 1.3805 30.9197 1.36429C30.8977 1.34809 30.871 1.33935 30.8437 1.33935C30.8163 1.33935 30.7897 1.34809 30.7677 1.36429C30.7456 1.3805 30.7293 1.40332 30.7212 1.42943L28.9304 6.3411C28.8425 6.58288 28.6846 6.79302 28.4768 6.9447C28.269 7.09638 28.0208 7.18274 27.7637 7.19276L22.5137 7.3911C22.4862 7.39065 22.4594 7.39903 22.437 7.41498C22.4147 7.43094 22.3981 7.45364 22.3896 7.47975C22.3811 7.50586 22.3812 7.534 22.3899 7.56004C22.3986 7.58608 22.4154 7.60865 22.4379 7.62443L26.562 10.8678C26.7644 11.026 26.9152 11.2407 26.9952 11.4848C27.0751 11.7289 27.0807 11.9913 27.0112 12.2386L25.5879 17.2786C25.5794 17.3038 25.5793 17.3312 25.5877 17.3564C25.5962 17.3817 25.6126 17.4035 25.6345 17.4186C25.6557 17.4367 25.6825 17.4466 25.7104 17.4466C25.7382 17.4466 25.7651 17.4367 25.7862 17.4186L30.1379 14.5019C30.3505 14.3609 30.6001 14.2858 30.8554 14.2861L30.8612 14.2628Z" fill="#D6A323"/>
</svg>
