<svg width="103" height="20" viewBox="0 0 103 20" fill="none" xmlns="http://www.w3.org/2000/svg">
<path d="M24.4833 18.6133C24.4505 18.7539 24.4499 18.9 24.4816 19.0409C24.5133 19.1817 24.5765 19.3135 24.6664 19.4265C24.7562 19.5394 24.8705 19.6305 25.0007 19.693C25.1308 19.7555 25.2734 19.7877 25.4177 19.7873C25.607 19.7873 25.7921 19.7313 25.9496 19.6263L31.1677 16.1475L36.3858 19.6263C36.5491 19.7346 36.7416 19.7904 36.9375 19.7861C37.1334 19.7818 37.3233 19.7177 37.4816 19.6022C37.6399 19.4868 37.7591 19.3256 37.8231 19.1405C37.8871 18.9553 37.8929 18.7549 37.8396 18.5663L36.0868 12.433L40.4338 8.52109C40.5731 8.39573 40.6725 8.23231 40.7198 8.05104C40.7672 7.86977 40.7603 7.6786 40.7002 7.50118C40.64 7.32375 40.5291 7.16785 40.3813 7.05276C40.2335 6.93766 40.0552 6.86842 39.8684 6.85359L34.405 6.41851L32.0408 1.18505C31.9655 1.01649 31.843 0.873324 31.6881 0.77283C31.5333 0.672335 31.3526 0.618807 31.168 0.618706C30.9834 0.618605 30.8027 0.671934 30.6477 0.772259C30.4928 0.872583 30.3701 1.01562 30.2947 1.18409L27.9305 6.41851L22.467 6.85263C22.2834 6.86718 22.1079 6.93429 21.9615 7.04596C21.8151 7.15762 21.704 7.30911 21.6414 7.48229C21.5788 7.65546 21.5674 7.84301 21.6087 8.02247C21.6499 8.20194 21.7419 8.36573 21.8738 8.49426L25.9122 12.4301L24.4833 18.6133ZM31.1677 3.90672L33.1246 8.23934L33.6881 8.28438H33.6891L37.4956 8.58626L34.3609 11.4076L34.3599 11.4095L33.9162 11.8082L34.0801 12.3803V12.3832L35.2809 16.5855L31.1677 13.8437V3.90672Z" fill="#D6A323"/>
<path d="M98.2537 19.2618C97.9959 19.2615 97.7441 19.1844 97.5304 19.0401L93.1787 16.1235C93.1573 16.1087 93.1319 16.1007 93.1058 16.1007C93.0798 16.1007 93.0543 16.1087 93.0329 16.1235L88.6812 19.0401C88.4627 19.186 88.205 19.262 87.9423 19.258C87.6795 19.254 87.4243 19.1701 87.2103 19.0176C86.9964 18.865 86.8339 18.651 86.7445 18.4039C86.655 18.1569 86.6429 17.8884 86.7096 17.6343L88.1387 12.5943C88.1455 12.5689 88.1447 12.5422 88.1364 12.5173C88.1281 12.4924 88.1127 12.4705 88.0921 12.4543L83.9737 9.21679C83.7569 9.05528 83.5961 8.82997 83.5138 8.57245C83.4315 8.31492 83.4319 8.0381 83.5149 7.7808C83.5979 7.5235 83.7593 7.29863 83.9765 7.1377C84.1938 6.97677 84.4559 6.88787 84.7262 6.88346L89.9762 6.68512C90.0021 6.68334 90.0268 6.67413 90.0475 6.65861C90.0682 6.64308 90.084 6.6219 90.0929 6.59762L91.9012 1.68012C91.9924 1.43083 92.1579 1.21557 92.3755 1.06348C92.593 0.911392 92.8521 0.829826 93.1175 0.829826C93.3829 0.829826 93.642 0.911392 93.8595 1.06348C94.077 1.21557 94.2426 1.43083 94.3337 1.68012L96.1421 6.59762C96.151 6.6219 96.1668 6.64308 96.1875 6.65861C96.2082 6.67413 96.2329 6.68334 96.2587 6.68512L101.509 6.88346C101.779 6.88787 102.041 6.97677 102.258 7.1377C102.476 7.29863 102.637 7.5235 102.72 7.7808C102.803 8.0381 102.803 8.31492 102.721 8.57245C102.639 8.82997 102.478 9.05528 102.261 9.21679L98.1429 12.4543C98.1217 12.47 98.1058 12.4919 98.0974 12.5169C98.0891 12.542 98.0887 12.569 98.0962 12.5943L99.5254 17.6343C99.5756 17.8276 99.5806 18.0299 99.54 18.2254C99.4994 18.421 99.4143 18.6046 99.2913 18.7619C99.1683 18.9193 99.0108 19.0463 98.8309 19.1329C98.6509 19.2196 98.4535 19.2637 98.2537 19.2618ZM93.1087 14.9335C93.3671 14.9414 93.617 15.0267 93.8262 15.1785L98.1779 18.0951C98.2 18.1119 98.2268 18.1211 98.2545 18.1213C98.2822 18.1215 98.3093 18.1128 98.3316 18.0963C98.3539 18.0799 98.3703 18.0567 98.3784 18.0302C98.3864 18.0037 98.3857 17.9753 98.3762 17.9493L96.9471 12.9093C96.8768 12.6621 96.8819 12.3994 96.962 12.1552C97.042 11.9109 97.1932 11.6961 97.3962 11.5385L101.515 8.30096C101.537 8.28518 101.554 8.26261 101.563 8.23657C101.571 8.21053 101.571 8.18238 101.563 8.15627C101.554 8.13016 101.538 8.10746 101.515 8.09151C101.493 8.07555 101.466 8.06718 101.439 8.06762L96.1887 7.86929C95.9317 7.85927 95.6834 7.77291 95.4756 7.62123C95.2679 7.46954 95.11 7.25941 95.0221 7.01762L93.2137 2.10012C93.2056 2.07401 93.1893 2.05119 93.1673 2.03499C93.1452 2.01878 93.1186 2.01004 93.0912 2.01004C93.0639 2.01004 93.0373 2.01878 93.0152 2.03499C92.9932 2.05119 92.9769 2.07401 92.9687 2.10012L91.1779 7.01179C91.09 7.25358 90.9321 7.46371 90.7244 7.61539C90.5166 7.76708 90.2683 7.85344 90.0112 7.86346L84.7612 8.06179C84.7338 8.06135 84.7069 8.06972 84.6846 8.08567C84.6622 8.10163 84.6456 8.12433 84.6371 8.15044C84.6286 8.17655 84.6288 8.20469 84.6374 8.23073C84.6461 8.25677 84.6629 8.27934 84.6854 8.29512L88.8096 11.5385C89.012 11.6966 89.1627 11.9114 89.2427 12.1555C89.3227 12.3996 89.3283 12.662 89.2587 12.9093L87.8354 17.9493C87.8269 17.9745 87.8269 18.0018 87.8353 18.0271C87.8437 18.0524 87.8601 18.0742 87.8821 18.0893C87.9032 18.1074 87.9301 18.1173 87.9579 18.1173C87.9857 18.1173 88.0126 18.1074 88.0337 18.0893L92.3854 15.1726C92.5981 15.0316 92.8477 14.9565 93.1029 14.9568L93.1087 14.9335Z" fill="#D6A323"/>
<path d="M77.553 19.4199C77.2952 19.4196 77.0433 19.3425 76.8297 19.1982L72.478 16.2815C72.4566 16.2667 72.4311 16.2588 72.4051 16.2588C72.379 16.2588 72.3536 16.2667 72.3322 16.2815L67.9805 19.1982C67.762 19.3441 67.5042 19.4201 67.2415 19.4161C66.9788 19.412 66.7235 19.3282 66.5096 19.1756C66.2956 19.0231 66.1331 18.8091 66.0437 18.562C65.9543 18.315 65.9421 18.0465 66.0088 17.7924L67.438 12.7524C67.4448 12.727 67.4439 12.7003 67.4356 12.6754C67.4274 12.6505 67.4119 12.6286 67.3913 12.6124L63.273 9.37488C63.0562 9.21337 62.8954 8.98806 62.8131 8.73053C62.7308 8.47301 62.7312 8.19619 62.8142 7.93889C62.8971 7.68159 63.0586 7.45672 63.2758 7.29579C63.493 7.13486 63.7552 7.04596 64.0255 7.04154L69.2755 6.84321C69.3013 6.84143 69.3261 6.83222 69.3468 6.8167C69.3675 6.80117 69.3832 6.77999 69.3922 6.75571L71.2005 1.83821C71.2916 1.58892 71.4572 1.37366 71.6747 1.22157C71.8923 1.06948 72.1513 0.987915 72.4168 0.987915C72.6822 0.987915 72.9412 1.06948 73.1588 1.22157C73.3763 1.37366 73.5419 1.58892 73.633 1.83821L75.4413 6.75571C75.4503 6.77999 75.466 6.80117 75.4867 6.8167C75.5074 6.83222 75.5322 6.84143 75.558 6.84321L80.808 7.04154C81.0783 7.04596 81.3405 7.13486 81.5577 7.29579C81.7749 7.45672 81.9364 7.68159 82.0193 7.93889C82.1023 8.19619 82.1027 8.47301 82.0204 8.73053C81.9381 8.98806 81.7773 9.21337 81.5605 9.37488L77.4422 12.6124C77.4209 12.6281 77.405 12.6499 77.3967 12.675C77.3883 12.7001 77.3879 12.7271 77.3955 12.7524L78.8247 17.7924C78.8748 17.9857 78.8798 18.188 78.8392 18.3835C78.7986 18.5791 78.7135 18.7627 78.5906 18.92C78.4676 19.0774 78.31 19.2044 78.1301 19.291C77.9502 19.3777 77.7527 19.4218 77.553 19.4199ZM72.408 15.0915C72.6663 15.0994 72.9163 15.1848 73.1255 15.3365L77.4772 18.2532C77.4992 18.27 77.5261 18.2792 77.5538 18.2794C77.5815 18.2796 77.6085 18.2708 77.6308 18.2544C77.6532 18.238 77.6696 18.2148 77.6776 18.1883C77.6857 18.1618 77.6849 18.1334 77.6755 18.1074L76.2463 13.0674C76.176 12.8201 76.1812 12.5575 76.2612 12.3133C76.3413 12.069 76.4925 11.8542 76.6955 11.6965L80.8138 8.45904C80.8363 8.44326 80.8531 8.4207 80.8618 8.39466C80.8705 8.36861 80.8706 8.34047 80.8621 8.31436C80.8536 8.28825 80.837 8.26555 80.8147 8.2496C80.7923 8.23364 80.7655 8.22527 80.738 8.22571L75.488 8.02738C75.2309 8.01736 74.9827 7.931 74.7749 7.77932C74.5671 7.62763 74.4092 7.4175 74.3213 7.17571L72.513 2.25821C72.5048 2.2321 72.4886 2.20928 72.4665 2.19307C72.4445 2.17687 72.4179 2.16813 72.3905 2.16813C72.3631 2.16813 72.3365 2.17687 72.3145 2.19307C72.2924 2.20928 72.2762 2.2321 72.268 2.25821L70.4772 7.16988C70.3893 7.41166 70.2314 7.6218 70.0236 7.77348C69.8158 7.92517 69.5676 8.01152 69.3105 8.02154L64.0605 8.21988C64.0331 8.21944 64.0062 8.22781 63.9838 8.24376C63.9615 8.25972 63.9449 8.28242 63.9364 8.30853C63.9279 8.33464 63.928 8.36278 63.9367 8.38882C63.9454 8.41486 63.9622 8.43743 63.9847 8.45321L68.1088 11.6965C68.3112 11.8547 68.462 12.0695 68.542 12.3136C68.6219 12.5577 68.6275 12.8201 68.558 13.0674L67.1347 18.1074C67.1262 18.1326 67.1261 18.1599 67.1346 18.1852C67.143 18.2105 67.1594 18.2323 67.1813 18.2474C67.2025 18.2655 67.2294 18.2754 67.2572 18.2754C67.285 18.2754 67.3119 18.2655 67.333 18.2474L71.6847 15.3307C71.8973 15.1896 72.147 15.1146 72.4022 15.1149L72.408 15.0915Z" fill="#D6A323"/>
<path d="M18.7427 7.3594L13.0399 6.53059L10.4906 1.36233C10.421 1.22083 10.3064 1.10628 10.1649 1.03665C9.81001 0.861451 9.37876 1.00745 9.20132 1.36233L6.65201 6.53059L0.949174 7.3594C0.791947 7.38186 0.648197 7.45598 0.538139 7.56829C0.405084 7.70504 0.331765 7.88903 0.334292 8.07982C0.336819 8.2706 0.414985 8.45258 0.551615 8.58577L4.67769 12.6085L3.70289 18.2889C3.68003 18.421 3.69465 18.5569 3.74509 18.6812C3.79554 18.8054 3.87979 18.9131 3.98829 18.9919C4.0968 19.0707 4.22521 19.1175 4.35897 19.127C4.49273 19.1366 4.62649 19.1084 4.74507 19.0458L9.84595 16.364L14.9468 19.0458C15.0861 19.1199 15.2478 19.1447 15.4028 19.1177C15.7936 19.0503 16.0564 18.6797 15.989 18.2889L15.0142 12.6085L19.1403 8.58577C19.2526 8.47571 19.3267 8.33196 19.3492 8.17473C19.4098 7.78167 19.1358 7.4178 18.7427 7.3594Z" fill="#D6A323"/>
<path d="M56.7038 19.4199C56.446 19.4196 56.1941 19.3425 55.9804 19.1982L51.6288 16.2815C51.6073 16.2667 51.5819 16.2588 51.5558 16.2588C51.5298 16.2588 51.5044 16.2667 51.4829 16.2815L47.1313 19.1982C46.9127 19.3441 46.655 19.4201 46.3923 19.4161C46.1295 19.412 45.8743 19.3282 45.6603 19.1756C45.4464 19.0231 45.2839 18.8091 45.1945 18.562C45.105 18.315 45.0929 18.0465 45.1596 17.7924L46.5888 12.7524C46.5955 12.727 46.5947 12.7003 46.5864 12.6754C46.5781 12.6505 46.5627 12.6286 46.5421 12.6124L42.4238 9.37488C42.207 9.21337 42.0461 8.98806 41.9638 8.73053C41.8816 8.47301 41.8819 8.19619 41.9649 7.93889C42.0479 7.68159 42.2093 7.45672 42.4266 7.29579C42.6438 7.13486 42.9059 7.04596 43.1763 7.04154L48.4263 6.84321C48.4521 6.84143 48.4768 6.83222 48.4975 6.8167C48.5182 6.80117 48.534 6.77999 48.5429 6.75571L50.3513 1.83821C50.4424 1.58892 50.608 1.37366 50.8255 1.22157C51.043 1.06948 51.3021 0.987915 51.5675 0.987915C51.8329 0.987915 52.092 1.06948 52.3095 1.22157C52.5271 1.37366 52.6926 1.58892 52.7838 1.83821L54.5921 6.75571C54.601 6.77999 54.6168 6.80117 54.6375 6.8167C54.6582 6.83222 54.6829 6.84143 54.7088 6.84321L59.9588 7.04154C60.2291 7.04596 60.4912 7.13486 60.7085 7.29579C60.9257 7.45672 61.0871 7.68159 61.1701 7.93889C61.2531 8.19619 61.2535 8.47301 61.1712 8.73053C61.0889 8.98806 60.9281 9.21337 60.7113 9.37488L56.5929 12.6124C56.5717 12.6281 56.5558 12.6499 56.5475 12.675C56.5391 12.7001 56.5387 12.7271 56.5463 12.7524L57.9754 17.7924C58.0256 17.9857 58.0306 18.188 57.99 18.3835C57.9494 18.5791 57.8643 18.7627 57.7413 18.92C57.6184 19.0774 57.4608 19.2044 57.2809 19.291C57.1009 19.3777 56.9035 19.4218 56.7038 19.4199ZM51.5588 15.0915C51.8171 15.0994 52.0671 15.1848 52.2763 15.3365L56.6279 18.2532C56.65 18.27 56.6769 18.2792 56.7046 18.2794C56.7323 18.2796 56.7593 18.2708 56.7816 18.2544C56.8039 18.238 56.8203 18.2148 56.8284 18.1883C56.8364 18.1618 56.8357 18.1334 56.8263 18.1074L55.3971 13.0674C55.3268 12.8201 55.332 12.5575 55.412 12.3133C55.492 12.069 55.6433 11.8542 55.8463 11.6965L59.9646 8.45904C59.9871 8.44326 60.0039 8.4207 60.0126 8.39466C60.0213 8.36861 60.0214 8.34047 60.0129 8.31436C60.0044 8.28825 59.9878 8.26555 59.9654 8.2496C59.9431 8.23364 59.9162 8.22527 59.8888 8.22571L54.6388 8.02738C54.3817 8.01736 54.1334 7.931 53.9257 7.77932C53.7179 7.62763 53.56 7.4175 53.4721 7.17571L51.6638 2.25821C51.6556 2.2321 51.6393 2.20928 51.6173 2.19307C51.5952 2.17687 51.5686 2.16813 51.5413 2.16813C51.5139 2.16813 51.4873 2.17687 51.4652 2.19307C51.4432 2.20928 51.4269 2.2321 51.4188 2.25821L49.6279 7.16988C49.54 7.41166 49.3821 7.6218 49.1744 7.77348C48.9666 7.92517 48.7183 8.01152 48.4613 8.02154L43.2113 8.21988C43.1838 8.21944 43.1569 8.22781 43.1346 8.24376C43.1123 8.25972 43.0956 8.28242 43.0871 8.30853C43.0787 8.33464 43.0788 8.36278 43.0875 8.38882C43.0961 8.41486 43.113 8.43743 43.1354 8.45321L47.2596 11.6965C47.462 11.8547 47.6127 12.0695 47.6927 12.3136C47.7727 12.5577 47.7783 12.8201 47.7088 13.0674L46.2854 18.1074C46.2769 18.1326 46.2769 18.1599 46.2853 18.1852C46.2937 18.2105 46.3102 18.2323 46.3321 18.2474C46.3532 18.2655 46.3801 18.2754 46.4079 18.2754C46.4357 18.2754 46.4626 18.2655 46.4838 18.2474L50.8354 15.3307C51.0481 15.1896 51.2977 15.1146 51.5529 15.1149L51.5588 15.0915Z" fill="#D6A323"/>
</svg>
