<svg width="103" height="20" viewBox="0 0 103 20" fill="none" xmlns="http://www.w3.org/2000/svg">
<path d="M98.4195 19.3747C98.1617 19.3744 97.9098 19.2973 97.6961 19.153L93.3445 16.2363C93.323 16.2215 93.2976 16.2136 93.2715 16.2136C93.2455 16.2136 93.2201 16.2215 93.1986 16.2363L88.847 19.153C88.6284 19.2989 88.3707 19.3749 88.108 19.3709C87.8452 19.3668 87.59 19.283 87.376 19.1304C87.1621 18.9779 86.9996 18.7639 86.9102 18.5168C86.8207 18.2698 86.8086 18.0013 86.8753 17.7472L88.3045 12.7072C88.3112 12.6818 88.3104 12.6551 88.3021 12.6302C88.2938 12.6053 88.2784 12.5834 88.2578 12.5672L84.1395 9.32968C83.9227 9.16817 83.7618 8.94286 83.6795 8.68534C83.5973 8.42782 83.5976 8.151 83.6806 7.8937C83.7636 7.6364 83.925 7.41152 84.1423 7.25059C84.3595 7.08967 84.6216 7.00076 84.892 6.99635L90.142 6.79801C90.1678 6.79623 90.1925 6.78702 90.2132 6.7715C90.2339 6.75598 90.2497 6.7348 90.2586 6.71052L92.067 1.79302C92.1581 1.54372 92.3237 1.32846 92.5412 1.17637C92.7587 1.02428 93.0178 0.942719 93.2832 0.942719C93.5486 0.942719 93.8077 1.02428 94.0252 1.17637C94.2428 1.32846 94.4083 1.54372 94.4995 1.79302L96.3078 6.71052C96.3167 6.7348 96.3325 6.75598 96.3532 6.7715C96.3739 6.78702 96.3986 6.79623 96.4245 6.79801L101.674 6.99635C101.945 7.00076 102.207 7.08967 102.424 7.25059C102.641 7.41152 102.803 7.6364 102.886 7.8937C102.969 8.151 102.969 8.42782 102.887 8.68534C102.805 8.94286 102.644 9.16817 102.427 9.32968L98.3086 12.5672C98.2874 12.5829 98.2715 12.6047 98.2632 12.6298C98.2548 12.6549 98.2544 12.6819 98.262 12.7072L99.6911 17.7472C99.7413 17.9405 99.7463 18.1428 99.7057 18.3383C99.6651 18.5339 99.58 18.7175 99.457 18.8748C99.3341 19.0322 99.1765 19.1592 98.9966 19.2458C98.8166 19.3325 98.6192 19.3766 98.4195 19.3747ZM93.2745 15.0463C93.5328 15.0543 93.7828 15.1396 93.992 15.2913L98.3436 18.208C98.3657 18.2248 98.3926 18.234 98.4203 18.2342C98.448 18.2344 98.475 18.2256 98.4973 18.2092C98.5196 18.1928 98.536 18.1696 98.5441 18.1431C98.5521 18.1166 98.5514 18.0882 98.542 18.0622L97.1128 13.0222C97.0425 12.7749 97.0476 12.5123 97.1277 12.2681C97.2077 12.0238 97.359 11.809 97.562 11.6513L101.68 8.41385C101.703 8.39807 101.72 8.3755 101.728 8.34946C101.737 8.32342 101.737 8.29527 101.729 8.26917C101.72 8.24306 101.703 8.22036 101.681 8.2044C101.659 8.18844 101.632 8.18007 101.604 8.18052L96.3545 7.98218C96.0974 7.97216 95.8491 7.8858 95.6413 7.73412C95.4336 7.58244 95.2757 7.3723 95.1878 7.13052L93.3795 2.21302C93.3713 2.18691 93.355 2.16408 93.333 2.14788C93.3109 2.13167 93.2843 2.12293 93.257 2.12293C93.2296 2.12293 93.203 2.13167 93.1809 2.14788C93.1589 2.16408 93.1426 2.18691 93.1345 2.21302L91.3436 7.12468C91.2557 7.36647 91.0978 7.5766 90.8901 7.72829C90.6823 7.87997 90.434 7.96633 90.177 7.97635L84.927 8.17468C84.8995 8.17424 84.8726 8.18261 84.8503 8.19857C84.828 8.21452 84.8113 8.23722 84.8028 8.26333C84.7944 8.28944 84.7945 8.31758 84.8032 8.34363C84.8118 8.36967 84.8287 8.39224 84.8511 8.40801L88.9753 11.6513C89.1777 11.8095 89.3284 12.0243 89.4084 12.2684C89.4884 12.5125 89.494 12.7749 89.4245 13.0222L88.0011 18.0622C87.9926 18.0874 87.9926 18.1147 88.001 18.14C88.0094 18.1653 88.0259 18.1871 88.0478 18.2022C88.0689 18.2203 88.0958 18.2302 88.1236 18.2302C88.1514 18.2302 88.1783 18.2203 88.1995 18.2022L92.5511 15.2855C92.7638 15.1444 93.0134 15.0694 93.2686 15.0697L93.2745 15.0463Z" fill="#D6A323"/>
<path d="M77.7187 19.5328C77.4609 19.5325 77.2091 19.4553 76.9954 19.3111L72.6437 16.3944C72.6223 16.3796 72.5968 16.3717 72.5708 16.3717C72.5447 16.3717 72.5193 16.3796 72.4979 16.3944L68.1462 19.3111C67.9277 19.457 67.67 19.533 67.4072 19.529C67.1445 19.5249 66.8892 19.4411 66.6753 19.2885C66.4613 19.136 66.2989 18.922 66.2094 18.6749C66.12 18.4278 66.1078 18.1594 66.1745 17.9053L67.6037 12.8653C67.6105 12.8399 67.6096 12.8132 67.6014 12.7883C67.5931 12.7634 67.5777 12.7415 67.557 12.7253L63.4387 9.48777C63.2219 9.32626 63.0611 9.10095 62.9788 8.84343C62.8965 8.5859 62.8969 8.30909 62.9799 8.05179C63.0628 7.79449 63.2243 7.56961 63.4415 7.40868C63.6587 7.24776 63.9209 7.15885 64.1912 7.15444L69.4412 6.9561C69.467 6.95432 69.4918 6.94511 69.5125 6.92959C69.5332 6.91406 69.5489 6.89289 69.5579 6.8686L71.3662 1.9511C71.4574 1.70181 71.6229 1.48655 71.8405 1.33446C72.058 1.18237 72.317 1.10081 72.5825 1.10081C72.8479 1.10081 73.1069 1.18237 73.3245 1.33446C73.542 1.48655 73.7076 1.70181 73.7987 1.9511L75.607 6.8686C75.616 6.89289 75.6318 6.91406 75.6525 6.92959C75.6732 6.94511 75.6979 6.95432 75.7237 6.9561L80.9737 7.15444C81.244 7.15885 81.5062 7.24776 81.7234 7.40868C81.9406 7.56961 82.1021 7.79449 82.1851 8.05179C82.268 8.30909 82.2684 8.5859 82.1861 8.84343C82.1038 9.10095 81.943 9.32626 81.7262 9.48777L77.6079 12.7253C77.5866 12.741 77.5708 12.7628 77.5624 12.7879C77.5541 12.8129 77.5536 12.84 77.5612 12.8653L78.9904 17.9053C79.0405 18.0986 79.0455 18.3009 79.0049 18.4964C78.9643 18.692 78.8792 18.8755 78.7563 19.0329C78.6333 19.1903 78.4758 19.3172 78.2958 19.4039C78.1159 19.4906 77.9184 19.5347 77.7187 19.5328ZM72.5737 15.2044C72.832 15.2123 73.082 15.2977 73.2912 15.4494L77.6429 18.3661C77.6649 18.3829 77.6918 18.392 77.7195 18.3923C77.7472 18.3925 77.7742 18.3837 77.7966 18.3673C77.8189 18.3509 77.8353 18.3277 77.8433 18.3012C77.8514 18.2747 77.8506 18.2463 77.8412 18.2203L76.412 13.1803C76.3417 12.933 76.3469 12.6704 76.4269 12.4261C76.507 12.1819 76.6582 11.9671 76.8612 11.8094L80.9795 8.57194C81.002 8.55616 81.0188 8.53359 81.0275 8.50755C81.0362 8.48151 81.0363 8.45336 81.0278 8.42725C81.0193 8.40114 81.0027 8.37844 80.9804 8.36249C80.958 8.34653 80.9312 8.33816 80.9037 8.3386L75.6537 8.14027C75.3966 8.13025 75.1484 8.04389 74.9406 7.89221C74.7328 7.74052 74.5749 7.53039 74.487 7.2886L72.6787 2.3711C72.6706 2.34499 72.6543 2.32217 72.6322 2.30597C72.6102 2.28976 72.5836 2.28102 72.5562 2.28102C72.5289 2.28102 72.5022 2.28976 72.4802 2.30597C72.4581 2.32217 72.4419 2.34499 72.4337 2.3711L70.6429 7.28277C70.555 7.52456 70.3971 7.73469 70.1893 7.88637C69.9815 8.03806 69.7333 8.12442 69.4762 8.13444L64.2262 8.33277C64.1988 8.33233 64.1719 8.3407 64.1496 8.35666C64.1272 8.37261 64.1106 8.39531 64.1021 8.42142C64.0936 8.44753 64.0937 8.47567 64.1024 8.50171C64.1111 8.52776 64.1279 8.55032 64.1504 8.5661L68.2745 11.8094C68.4769 11.9676 68.6277 12.1824 68.7077 12.4265C68.7877 12.6706 68.7932 12.933 68.7237 13.1803L67.3004 18.2203C67.2919 18.2455 67.2918 18.2728 67.3003 18.2981C67.3087 18.3233 67.3251 18.3452 67.347 18.3603C67.3682 18.3783 67.3951 18.3883 67.4229 18.3883C67.4507 18.3883 67.4776 18.3783 67.4987 18.3603L71.8504 15.4436C72.0631 15.3025 72.3127 15.2274 72.5679 15.2278L72.5737 15.2044Z" fill="#D6A323"/>
<path d="M18.9084 7.47229L13.2056 6.64348L10.6563 1.47522C10.5867 1.33372 10.4721 1.21917 10.3306 1.14954C9.97573 0.974343 9.54447 1.12034 9.36703 1.47522L6.81772 6.64348L1.11488 7.47229C0.957658 7.49475 0.813908 7.56887 0.703849 7.68118C0.570794 7.81794 0.497475 8.00192 0.500002 8.19271C0.502529 8.3835 0.580696 8.56547 0.717326 8.69866L4.8434 12.7214L3.8686 18.4018C3.84574 18.5339 3.86036 18.6698 3.9108 18.7941C3.96125 18.9183 4.0455 19.026 4.154 19.1048C4.26251 19.1836 4.39092 19.2304 4.52468 19.2399C4.65844 19.2495 4.7922 19.2213 4.91078 19.1587L10.0117 16.4769L15.1125 19.1587C15.2518 19.2328 15.4135 19.2575 15.5685 19.2306C15.9593 19.1632 16.2221 18.7926 16.1547 18.4018L15.1799 12.7214L19.306 8.69866C19.4183 8.5886 19.4924 8.44485 19.5149 8.28762C19.5755 7.89456 19.3015 7.53069 18.9084 7.47229Z" fill="#D6A323"/>
<path d="M39.9202 7.47229L34.2173 6.64348L31.668 1.47522C31.5984 1.33372 31.4838 1.21917 31.3423 1.14954C30.9874 0.974343 30.5562 1.12034 30.3788 1.47522L27.8294 6.64348L22.1266 7.47229C21.9694 7.49475 21.8256 7.56887 21.7156 7.68118C21.5825 7.81794 21.5092 8.00192 21.5117 8.19271C21.5142 8.3835 21.5924 8.56547 21.729 8.69866L25.8551 12.7214L24.8803 18.4018C24.8575 18.5339 24.8721 18.6698 24.9225 18.7941C24.973 18.9183 25.0572 19.026 25.1657 19.1048C25.2742 19.1836 25.4026 19.2304 25.5364 19.2399C25.6702 19.2495 25.8039 19.2213 25.9225 19.1587L31.0234 16.4769L36.1243 19.1587C36.2635 19.2328 36.4252 19.2575 36.5802 19.2306C36.971 19.1632 37.2338 18.7926 37.1664 18.4018L36.1916 12.7214L40.3177 8.69866C40.43 8.5886 40.5041 8.44485 40.5266 8.28762C40.5872 7.89456 40.3132 7.53069 39.9202 7.47229Z" fill="#D6A323"/>
<path d="M56.8695 19.5328C56.6117 19.5325 56.3598 19.4553 56.1461 19.3111L51.7945 16.3944C51.773 16.3796 51.7476 16.3717 51.7216 16.3717C51.6955 16.3717 51.6701 16.3796 51.6486 16.3944L47.297 19.3111C47.0784 19.457 46.8207 19.533 46.558 19.529C46.2953 19.5249 46.04 19.4411 45.826 19.2885C45.6121 19.136 45.4496 18.922 45.3602 18.6749C45.2707 18.4278 45.2586 18.1594 45.3253 17.9053L46.7545 12.8653C46.7612 12.8399 46.7604 12.8132 46.7521 12.7883C46.7438 12.7634 46.7284 12.7415 46.7078 12.7253L42.5895 9.48777C42.3727 9.32626 42.2118 9.10095 42.1296 8.84343C42.0473 8.5859 42.0476 8.30909 42.1306 8.05179C42.2136 7.79449 42.375 7.56961 42.5923 7.40868C42.8095 7.24776 43.0717 7.15885 43.342 7.15444L48.592 6.9561C48.6178 6.95432 48.6425 6.94511 48.6632 6.92959C48.6839 6.91406 48.6997 6.89289 48.7086 6.8686L50.517 1.9511C50.6081 1.70181 50.7737 1.48655 50.9912 1.33446C51.2088 1.18237 51.4678 1.10081 51.7332 1.10081C51.9987 1.10081 52.2577 1.18237 52.4752 1.33446C52.6928 1.48655 52.8583 1.70181 52.9495 1.9511L54.7578 6.8686C54.7667 6.89289 54.7825 6.91406 54.8032 6.92959C54.8239 6.94511 54.8487 6.95432 54.8745 6.9561L60.1245 7.15444C60.3948 7.15885 60.6569 7.24776 60.8742 7.40868C61.0914 7.56961 61.2528 7.79449 61.3358 8.05179C61.4188 8.30909 61.4192 8.5859 61.3369 8.84343C61.2546 9.10095 61.0938 9.32626 60.877 9.48777L56.7586 12.7253C56.7374 12.741 56.7215 12.7628 56.7132 12.7879C56.7048 12.8129 56.7044 12.84 56.712 12.8653L58.1411 17.9053C58.1913 18.0986 58.1963 18.3009 58.1557 18.4964C58.1151 18.692 58.03 18.8755 57.907 19.0329C57.7841 19.1903 57.6265 19.3172 57.4466 19.4039C57.2667 19.4906 57.0692 19.5347 56.8695 19.5328ZM51.7245 15.2044C51.9828 15.2123 52.2328 15.2977 52.442 15.4494L56.7936 18.3661C56.8157 18.3829 56.8426 18.392 56.8703 18.3923C56.898 18.3925 56.925 18.3837 56.9473 18.3673C56.9696 18.3509 56.986 18.3277 56.9941 18.3012C57.0021 18.2747 57.0014 18.2463 56.992 18.2203L55.5628 13.1803C55.4925 12.933 55.4977 12.6704 55.5777 12.4261C55.6577 12.1819 55.809 11.9671 56.012 11.8094L60.1303 8.57194C60.1528 8.55616 60.1696 8.53359 60.1783 8.50755C60.187 8.48151 60.1871 8.45336 60.1786 8.42725C60.1701 8.40114 60.1535 8.37844 60.1311 8.36249C60.1088 8.34653 60.0819 8.33816 60.0545 8.3386L54.8045 8.14027C54.5474 8.13025 54.2991 8.04389 54.0914 7.89221C53.8836 7.74052 53.7257 7.53039 53.6378 7.2886L51.8295 2.3711C51.8213 2.34499 51.805 2.32217 51.783 2.30597C51.761 2.28976 51.7343 2.28102 51.707 2.28102C51.6796 2.28102 51.653 2.28976 51.6309 2.30597C51.6089 2.32217 51.5926 2.34499 51.5845 2.3711L49.7936 7.28277C49.7058 7.52456 49.5479 7.73469 49.3401 7.88637C49.1323 8.03806 48.884 8.12442 48.627 8.13444L43.377 8.33277C43.3495 8.33233 43.3226 8.3407 43.3003 8.35666C43.278 8.37261 43.2613 8.39531 43.2528 8.42142C43.2444 8.44753 43.2445 8.47567 43.2532 8.50171C43.2619 8.52776 43.2787 8.55032 43.3011 8.5661L47.4253 11.8094C47.6277 11.9676 47.7785 12.1824 47.8584 12.4265C47.9384 12.6706 47.944 12.933 47.8745 13.1803L46.4511 18.2203C46.4426 18.2455 46.4426 18.2728 46.451 18.2981C46.4594 18.3233 46.4759 18.3452 46.4978 18.3603C46.5189 18.3783 46.5458 18.3883 46.5736 18.3883C46.6014 18.3883 46.6283 18.3783 46.6495 18.3603L51.0011 15.4436C51.2138 15.3025 51.4634 15.2274 51.7186 15.2278L51.7245 15.2044Z" fill="#D6A323"/>
</svg>
