<svg width="103" height="24" viewBox="0 0 103 24" fill="none" xmlns="http://www.w3.org/2000/svg">
<path d="M97.9195 21.3747C97.6617 21.3744 97.4099 21.2973 97.1962 21.153L92.8445 18.2363C92.8231 18.2215 92.7976 18.2136 92.7716 18.2136C92.7456 18.2136 92.7201 18.2215 92.6987 18.2363L88.347 21.153C88.1285 21.2989 87.8708 21.3749 87.608 21.3709C87.3453 21.3668 87.09 21.283 86.8761 21.1304C86.6621 20.9779 86.4997 20.7639 86.4102 20.5168C86.3208 20.2698 86.3086 20.0013 86.3753 19.7472L87.8045 14.7072C87.8113 14.6818 87.8105 14.6551 87.8022 14.6302C87.7939 14.6053 87.7785 14.5834 87.7579 14.5672L83.6395 11.3297C83.4227 11.1682 83.2619 10.9429 83.1796 10.6853C83.0973 10.4278 83.0977 10.151 83.1807 9.89369C83.2637 9.63639 83.4251 9.41151 83.6423 9.25059C83.8595 9.08966 84.1217 9.00076 84.392 8.99634L89.642 8.79801C89.6678 8.79623 89.6926 8.78702 89.7133 8.7715C89.734 8.75597 89.7497 8.73479 89.7587 8.71051L91.567 3.79301C91.6582 3.54372 91.8237 3.32845 92.0413 3.17637C92.2588 3.02428 92.5178 2.94271 92.7833 2.94271C93.0487 2.94271 93.3077 3.02428 93.5253 3.17637C93.7428 3.32845 93.9084 3.54372 93.9995 3.79301L95.8078 8.71051C95.8168 8.73479 95.8326 8.75597 95.8533 8.7715C95.874 8.78702 95.8987 8.79623 95.9245 8.79801L101.175 8.99634C101.445 9.00076 101.707 9.08966 101.924 9.25059C102.141 9.41151 102.303 9.63639 102.386 9.89369C102.469 10.151 102.469 10.4278 102.387 10.6853C102.305 10.9429 102.144 11.1682 101.927 11.3297L97.8087 14.5672C97.7874 14.5829 97.7716 14.6047 97.7632 14.6298C97.7549 14.6549 97.7544 14.6819 97.762 14.7072L99.1912 19.7472C99.2413 19.9405 99.2463 20.1428 99.2057 20.3383C99.1651 20.5339 99.0801 20.7175 98.9571 20.8748C98.8341 21.0322 98.6766 21.1592 98.4966 21.2458C98.3167 21.3325 98.1192 21.3766 97.9195 21.3747ZM92.7745 17.0463C93.0328 17.0542 93.2828 17.1396 93.492 17.2913L97.8437 20.208C97.8657 20.2248 97.8926 20.2339 97.9203 20.2342C97.948 20.2344 97.975 20.2256 97.9974 20.2092C98.0197 20.1928 98.0361 20.1696 98.0441 20.1431C98.0522 20.1166 98.0514 20.0882 98.042 20.0622L96.6129 15.0222C96.5425 14.7749 96.5477 14.5123 96.6277 14.2681C96.7078 14.0238 96.859 13.809 97.062 13.6513L101.18 10.4138C101.203 10.3981 101.22 10.3755 101.228 10.3495C101.237 10.3234 101.237 10.2953 101.229 10.2692C101.22 10.2431 101.204 10.2204 101.181 10.2044C101.159 10.1884 101.132 10.1801 101.105 10.1805L95.8545 9.98218C95.5975 9.97216 95.3492 9.8858 95.1414 9.73412C94.9336 9.58243 94.7757 9.3723 94.6878 9.13051L92.8795 4.21301C92.8714 4.1869 92.8551 4.16408 92.833 4.14787C92.811 4.13167 92.7844 4.12293 92.757 4.12293C92.7297 4.12293 92.703 4.13167 92.681 4.14787C92.659 4.16408 92.6427 4.1869 92.6345 4.21301L90.8437 9.12468C90.7558 9.36646 90.5979 9.5766 90.3901 9.72828C90.1823 9.87997 89.9341 9.96632 89.677 9.97634L84.427 10.1747C84.3996 10.1742 84.3727 10.1826 84.3504 10.1986C84.328 10.2145 84.3114 10.2372 84.3029 10.2633C84.2944 10.2894 84.2945 10.3176 84.3032 10.3436C84.3119 10.3697 84.3287 10.3922 84.3512 10.408L88.4753 13.6513C88.6777 13.8095 88.8285 14.0243 88.9085 14.2684C88.9885 14.5125 88.994 14.7749 88.9245 15.0222L87.5012 20.0622C87.4927 20.0874 87.4926 20.1147 87.5011 20.14C87.5095 20.1653 87.5259 20.1871 87.5478 20.2022C87.569 20.2203 87.5959 20.2302 87.6237 20.2302C87.6515 20.2302 87.6784 20.2203 87.6995 20.2022L92.0512 17.2855C92.2639 17.1444 92.5135 17.0694 92.7687 17.0697L92.7745 17.0463Z" fill="#D6A323"/>
<path d="M77.2188 21.5328C76.961 21.5325 76.7091 21.4553 76.4954 21.3111L72.1438 18.3944C72.1223 18.3796 72.0969 18.3717 72.0709 18.3717C72.0448 18.3717 72.0194 18.3796 71.9979 18.3944L67.6463 21.3111C67.4278 21.457 67.17 21.533 66.9073 21.529C66.6446 21.5249 66.3893 21.4411 66.1753 21.2885C65.9614 21.136 65.7989 20.922 65.7095 20.6749C65.62 20.4278 65.6079 20.1594 65.6746 19.9053L67.1038 14.8653C67.1105 14.8399 67.1097 14.8132 67.1014 14.7883C67.0931 14.7634 67.0777 14.7415 67.0571 14.7253L62.9388 11.4878C62.722 11.3263 62.5611 11.1009 62.4789 10.8434C62.3966 10.5859 62.3969 10.3091 62.4799 10.0518C62.5629 9.79448 62.7243 9.5696 62.9416 9.40867C63.1588 9.24775 63.421 9.15884 63.6913 9.15443L68.9413 8.9561C68.9671 8.95431 68.9918 8.94511 69.0125 8.92958C69.0332 8.91406 69.049 8.89288 69.0579 8.8686L70.8663 3.9511C70.9574 3.7018 71.123 3.48654 71.3405 3.33445C71.5581 3.18236 71.8171 3.1008 72.0825 3.1008C72.348 3.1008 72.607 3.18236 72.8245 3.33445C73.0421 3.48654 73.2076 3.7018 73.2988 3.9511L75.1071 8.8686C75.116 8.89288 75.1318 8.91406 75.1525 8.92958C75.1732 8.94511 75.198 8.95431 75.2238 8.9561L80.4738 9.15443C80.7441 9.15884 81.0062 9.24775 81.2235 9.40867C81.4407 9.5696 81.6021 9.79448 81.6851 10.0518C81.7681 10.3091 81.7685 10.5859 81.6862 10.8434C81.6039 11.1009 81.4431 11.3263 81.2263 11.4878L77.1079 14.7253C77.0867 14.741 77.0708 14.7628 77.0625 14.7879C77.0541 14.8129 77.0537 14.84 77.0613 14.8653L78.4904 19.9053C78.5406 20.0986 78.5456 20.3009 78.505 20.4964C78.4644 20.692 78.3793 20.8755 78.2563 21.0329C78.1334 21.1903 77.9758 21.3172 77.7959 21.4039C77.616 21.4906 77.4185 21.5347 77.2188 21.5328ZM72.0738 17.2044C72.3321 17.2123 72.5821 17.2977 72.7913 17.4494L77.1429 20.3661C77.165 20.3829 77.1919 20.392 77.2196 20.3923C77.2473 20.3925 77.2743 20.3837 77.2966 20.3673C77.3189 20.3509 77.3353 20.3277 77.3434 20.3012C77.3514 20.2747 77.3507 20.2463 77.3413 20.2203L75.9121 15.1803C75.8418 14.933 75.847 14.6704 75.927 14.4261C76.007 14.1819 76.1583 13.9671 76.3613 13.8094L80.4796 10.5719C80.5021 10.5561 80.5189 10.5336 80.5276 10.5075C80.5363 10.4815 80.5364 10.4534 80.5279 10.4272C80.5194 10.4011 80.5028 10.3784 80.4804 10.3625C80.4581 10.3465 80.4312 10.3382 80.4038 10.3386L75.1538 10.1403C74.8967 10.1302 74.6485 10.0439 74.4407 9.8922C74.2329 9.74052 74.075 9.53038 73.9871 9.2886L72.1788 4.3711C72.1706 4.34499 72.1543 4.32216 72.1323 4.30596C72.1103 4.28975 72.0836 4.28101 72.0563 4.28101C72.0289 4.28101 72.0023 4.28975 71.9802 4.30596C71.9582 4.32216 71.9419 4.34499 71.9338 4.3711L70.1429 9.28276C70.0551 9.52455 69.8972 9.73468 69.6894 9.88637C69.4816 10.0381 69.2333 10.1244 68.9763 10.1344L63.7263 10.3328C63.6988 10.3323 63.672 10.3407 63.6496 10.3566C63.6273 10.3726 63.6106 10.3953 63.6022 10.4214C63.5937 10.4475 63.5938 10.4757 63.6025 10.5017C63.6112 10.5277 63.628 10.5503 63.6504 10.5661L67.7746 13.8094C67.977 13.9676 68.1278 14.1824 68.2077 14.4265C68.2877 14.6706 68.2933 14.933 68.2238 15.1803L66.8004 20.2203C66.7919 20.2455 66.7919 20.2728 66.8003 20.2981C66.8087 20.3233 66.8252 20.3452 66.8471 20.3603C66.8682 20.3783 66.8951 20.3883 66.9229 20.3883C66.9507 20.3883 66.9776 20.3783 66.9988 20.3603L71.3504 17.4436C71.5631 17.3025 71.8127 17.2274 72.0679 17.2278L72.0738 17.2044Z" fill="#D6A323"/>
<path d="M18.4085 9.47229L12.7057 8.64348L10.1564 3.47522C10.0867 3.33371 9.97217 3.21916 9.83067 3.14953C9.47579 2.97434 9.04454 3.12034 8.86709 3.47522L6.31778 8.64348L0.614945 9.47229C0.457719 9.49475 0.313969 9.56887 0.20391 9.68118C0.0708555 9.81793 -0.00246376 10.0019 6.32184e-05 10.1927C0.0025902 10.3835 0.0807566 10.5655 0.217387 10.6987L4.34346 14.7214L3.36866 20.4018C3.3458 20.5339 3.36042 20.6698 3.41087 20.7941C3.46131 20.9183 3.54556 21.0259 3.65406 21.1048C3.76257 21.1836 3.89098 21.2304 4.02474 21.2399C4.1585 21.2495 4.29226 21.2213 4.41084 21.1587L9.51172 18.4769L14.6126 21.1587C14.7519 21.2328 14.9136 21.2575 15.0686 21.2306C15.4594 21.1632 15.7222 20.7926 15.6548 20.4018L14.68 14.7214L18.8061 10.6987C18.9184 10.5886 18.9925 10.4448 19.0149 10.2876C19.0756 9.89455 18.8016 9.53069 18.4085 9.47229Z" fill="#D6A323"/>
<path d="M39.4202 9.47229L33.7174 8.64348L31.1681 3.47522C31.0984 3.33371 30.9839 3.21916 30.8424 3.14953C30.4875 2.97434 30.0563 3.12034 29.8788 3.47522L27.3295 8.64348L21.6267 9.47229C21.4694 9.49475 21.3257 9.56887 21.2156 9.68118C21.0826 9.81793 21.0093 10.0019 21.0118 10.1927C21.0143 10.3835 21.0925 10.5655 21.2291 10.6987L25.3552 14.7214L24.3804 20.4018C24.3575 20.5339 24.3721 20.6698 24.4226 20.7941C24.473 20.9183 24.5573 21.0259 24.6658 21.1048C24.7743 21.1836 24.9027 21.2304 25.0365 21.2399C25.1702 21.2495 25.304 21.2213 25.4226 21.1587L30.5234 18.4769L35.6243 21.1587C35.7636 21.2328 35.9253 21.2575 36.0803 21.2306C36.4711 21.1632 36.7339 20.7926 36.6665 20.4018L35.6917 14.7214L39.8178 10.6987C39.9301 10.5886 40.0042 10.4448 40.0267 10.2876C40.0873 9.89455 39.8133 9.53069 39.4202 9.47229Z" fill="#D6A323"/>
<path d="M44.5397 20.7262C44.5069 20.8667 44.5063 21.0129 44.538 21.1537C44.5697 21.2946 44.6329 21.4264 44.7228 21.5393C44.8126 21.6523 44.9269 21.7434 45.0571 21.8059C45.1872 21.8684 45.3298 21.9006 45.4741 21.9001C45.6634 21.9002 45.8485 21.8442 46.006 21.7391L51.2241 18.2604L56.4422 21.7391C56.6055 21.8475 56.798 21.9033 56.9939 21.899C57.1898 21.8947 57.3797 21.8305 57.538 21.7151C57.6963 21.5997 57.8155 21.4385 57.8795 21.2533C57.9435 21.0681 57.9493 20.8678 57.896 20.6792L56.1432 14.5459L60.4902 10.634C60.6295 10.5086 60.7289 10.3452 60.7762 10.1639C60.8235 9.98264 60.8167 9.79148 60.7565 9.61405C60.6964 9.43663 60.5855 9.28072 60.4377 9.16563C60.2899 9.05053 60.1116 8.98129 59.9248 8.96646L54.4614 8.53138L52.0971 3.29792C52.0219 3.12936 51.8994 2.9862 51.7445 2.8857C51.5897 2.78521 51.409 2.73168 51.2244 2.73158C51.0398 2.73148 50.8591 2.78481 50.7041 2.88513C50.5492 2.98546 50.4265 3.12849 50.3511 3.29696L47.9869 8.53138L42.5234 8.96551C42.3398 8.98005 42.1643 9.04717 42.0179 9.15883C41.8715 9.2705 41.7604 9.42198 41.6978 9.59516C41.6352 9.76834 41.6238 9.95588 41.6651 10.1353C41.7063 10.3148 41.7983 10.4786 41.9302 10.6071L45.9686 14.543L44.5397 20.7262ZM51.2241 6.01959L53.181 10.3522L53.7445 10.3973H53.7455L57.552 10.6991L54.4173 13.5205L54.4163 13.5224L53.9726 13.921L54.1365 14.4932V14.496L55.3373 18.6983L51.2241 15.9565V6.01959Z" fill="#D6A323"/>
</svg>
