<svg width="105" height="20" viewBox="0 0 105 20" fill="none" xmlns="http://www.w3.org/2000/svg">
<path d="M99.8281 19.5197C99.5703 19.5195 99.3184 19.4423 99.1048 19.2981L94.7531 16.3814C94.7317 16.3666 94.7062 16.3587 94.6802 16.3587C94.6541 16.3587 94.6287 16.3666 94.6073 16.3814L90.2556 19.2981C90.0371 19.444 89.7793 19.52 89.5166 19.5159C89.2539 19.5119 88.9986 19.428 88.7847 19.2755C88.5707 19.123 88.4082 18.9089 88.3188 18.6619C88.2294 18.4148 88.2172 18.1464 88.2839 17.8922L89.7131 12.8522C89.7198 12.8269 89.719 12.8001 89.7107 12.7752C89.7024 12.7504 89.687 12.7285 89.6664 12.7122L85.5481 9.47473C85.3313 9.31322 85.1705 9.08791 85.0882 8.83039C85.0059 8.57287 85.0063 8.29605 85.0892 8.03875C85.1722 7.78145 85.3336 7.55657 85.5509 7.39564C85.7681 7.23472 86.0303 7.14581 86.3006 7.1414L91.5506 6.94307C91.5764 6.94128 91.6011 6.93208 91.6218 6.91655C91.6425 6.90103 91.6583 6.87985 91.6673 6.85557L93.4756 1.93807C93.5667 1.68877 93.7323 1.47351 93.9498 1.32142C94.1674 1.16934 94.4264 1.08777 94.6918 1.08777C94.9573 1.08777 95.2163 1.16934 95.4338 1.32142C95.6514 1.47351 95.8169 1.68877 95.9081 1.93807L97.7164 6.85557C97.7254 6.87985 97.7411 6.90103 97.7618 6.91655C97.7825 6.93208 97.8073 6.94128 97.8331 6.94307L103.083 7.1414C103.353 7.14581 103.616 7.23472 103.833 7.39564C104.05 7.55657 104.211 7.78145 104.294 8.03875C104.377 8.29605 104.378 8.57287 104.295 8.83039C104.213 9.08791 104.052 9.31322 103.836 9.47473L99.7173 12.7122C99.696 12.7279 99.6801 12.7498 99.6718 12.7749C99.6634 12.7999 99.663 12.8269 99.6706 12.8522L101.1 17.8922C101.15 18.0856 101.155 18.2878 101.114 18.4834C101.074 18.6789 100.989 18.8625 100.866 19.0199C100.743 19.1773 100.585 19.3042 100.405 19.3909C100.225 19.4776 100.028 19.5217 99.8281 19.5197ZM94.6831 15.1914C94.9414 15.1993 95.1914 15.2847 95.4006 15.4364L99.7523 18.3531C99.7743 18.3698 99.8012 18.379 99.8289 18.3792C99.8566 18.3794 99.8836 18.3707 99.9059 18.3543C99.9282 18.3379 99.9447 18.3147 99.9527 18.2882C99.9608 18.2617 99.96 18.2333 99.9506 18.2072L98.5214 13.1672C98.4511 12.92 98.4563 12.6574 98.5363 12.4131C98.6164 12.1688 98.7676 11.9541 98.9706 11.7964L103.089 8.5589C103.111 8.54312 103.128 8.52055 103.137 8.49451C103.146 8.46847 103.146 8.44033 103.137 8.41422C103.129 8.38811 103.112 8.36541 103.09 8.34945C103.067 8.3335 103.041 8.32512 103.013 8.32557L97.7631 8.12723C97.506 8.11721 97.2578 8.03085 97.05 7.87917C96.8422 7.72749 96.6843 7.51735 96.5964 7.27557L94.7881 2.35807C94.7799 2.33196 94.7637 2.30914 94.7416 2.29293C94.7196 2.27673 94.6929 2.26799 94.6656 2.26799C94.6382 2.26799 94.6116 2.27673 94.5896 2.29293C94.5675 2.30914 94.5512 2.33196 94.5431 2.35807L92.7523 7.26973C92.6644 7.51152 92.5065 7.72165 92.2987 7.87334C92.0909 8.02502 91.8427 8.11138 91.5856 8.1214L86.3356 8.31973C86.3081 8.31929 86.2813 8.32766 86.2589 8.34362C86.2366 8.35957 86.22 8.38227 86.2115 8.40838C86.203 8.43449 86.2031 8.46264 86.2118 8.48868C86.2205 8.51472 86.2373 8.53729 86.2598 8.55307L90.3839 11.7964C90.5863 11.9546 90.7371 12.1694 90.8171 12.4135C90.897 12.6576 90.9026 12.92 90.8331 13.1672L89.4098 18.2072C89.4013 18.2325 89.4012 18.2598 89.4096 18.285C89.4181 18.3103 89.4345 18.3321 89.4564 18.3472C89.4776 18.3653 89.5044 18.3752 89.5323 18.3752C89.5601 18.3752 89.587 18.3653 89.6081 18.3472L93.9598 15.4306C94.1724 15.2895 94.422 15.2144 94.6773 15.2147L94.6831 15.1914Z" fill="#D6A323"/>
<path d="M39.7089 6.74812L34.0061 5.91931L31.4568 0.751049C31.3871 0.609545 31.2726 0.494995 31.1311 0.425366C30.7762 0.25017 30.345 0.396167 30.1675 0.751049L27.6182 5.91931L21.9154 6.74812C21.7581 6.77058 21.6144 6.8447 21.5043 6.95701C21.3713 7.09376 21.298 7.27775 21.3005 7.46854C21.303 7.65932 21.3812 7.8413 21.5178 7.97449L25.6439 11.9972L24.6691 17.6776C24.6462 17.8097 24.6608 17.9457 24.7113 18.0699C24.7617 18.1942 24.846 18.3018 24.9545 18.3806C25.063 18.4594 25.1914 18.5062 25.3252 18.5158C25.4589 18.5253 25.5927 18.4972 25.7113 18.4345L30.8121 15.7527L35.913 18.4345C36.0523 18.5087 36.214 18.5334 36.369 18.5064C36.7598 18.439 37.0226 18.0684 36.9552 17.6776L35.9804 11.9972L40.1065 7.97449C40.2188 7.86443 40.2929 7.72068 40.3154 7.56345C40.376 7.17039 40.102 6.80652 39.7089 6.74812Z" fill="#D6A323"/>
<path d="M18.5528 6.74812L12.85 5.91931L10.3007 0.751049C10.2311 0.609545 10.1165 0.494995 9.97502 0.425366C9.62013 0.25017 9.18888 0.396167 9.01144 0.751049L6.46213 5.91931L0.759294 6.74812C0.602067 6.77058 0.458317 6.8447 0.348258 6.95701C0.215204 7.09376 0.141884 7.27775 0.144411 7.46854C0.146938 7.65932 0.225105 7.8413 0.361735 7.97449L4.48781 11.9972L3.513 17.6776C3.49015 17.8097 3.50477 17.9457 3.55521 18.0699C3.60566 18.1942 3.68991 18.3018 3.79841 18.3806C3.90691 18.4594 4.03533 18.5062 4.16909 18.5158C4.30285 18.5253 4.43661 18.4972 4.55519 18.4345L9.65607 15.7527L14.757 18.4345C14.8962 18.5087 15.0579 18.5334 15.2129 18.5064C15.6037 18.439 15.8665 18.0684 15.7991 17.6776L14.8243 11.9972L18.9504 7.97449C19.0627 7.86443 19.1368 7.72068 19.1593 7.56345C19.2199 7.17039 18.9459 6.80652 18.5528 6.74812Z" fill="#D6A323"/>
<path d="M60.121 6.74812L54.4182 5.91931L51.8689 0.751049C51.7992 0.609545 51.6847 0.494995 51.5432 0.425366C51.1883 0.25017 50.7571 0.396167 50.5796 0.751049L48.0303 5.91931L42.3275 6.74812C42.1702 6.77058 42.0265 6.8447 41.9164 6.95701C41.7834 7.09376 41.7101 7.27775 41.7126 7.46854C41.7151 7.65932 41.7933 7.8413 41.9299 7.97449L46.056 11.9972L45.0812 17.6776C45.0583 17.8097 45.0729 17.9457 45.1234 18.0699C45.1738 18.1942 45.2581 18.3018 45.3666 18.3806C45.4751 18.4594 45.6035 18.5062 45.7373 18.5158C45.871 18.5253 46.0048 18.4972 46.1234 18.4345L51.2242 15.7527L56.3251 18.4345C56.4644 18.5087 56.6261 18.5334 56.7811 18.5064C57.1719 18.439 57.4347 18.0684 57.3673 17.6776L56.3925 11.9972L60.5186 7.97449C60.6309 7.86443 60.705 7.72068 60.7275 7.56345C60.7881 7.17039 60.5141 6.80652 60.121 6.74812Z" fill="#D6A323"/>
<path d="M78.6964 18.7832C78.4386 18.783 78.1867 18.7058 77.973 18.5615L73.6214 15.6449C73.5999 15.6301 73.5745 15.6221 73.5485 15.6221C73.5224 15.6221 73.497 15.6301 73.4755 15.6449L69.1239 18.5615C68.9054 18.7074 68.6476 18.7834 68.3849 18.7794C68.1222 18.7754 67.8669 18.6915 67.6529 18.539C67.439 18.3864 67.2765 18.1724 67.1871 17.9253C67.0976 17.6783 67.0855 17.4098 67.1522 17.1557L68.5814 12.1157C68.5881 12.0904 68.5873 12.0636 68.579 12.0387C68.5707 12.0138 68.5553 11.9919 68.5347 11.9757L64.4164 8.7382C64.1996 8.57669 64.0387 8.35138 63.9565 8.09386C63.8742 7.83633 63.8745 7.55951 63.9575 7.30221C64.0405 7.04491 64.2019 6.82004 64.4192 6.65911C64.6364 6.49818 64.8986 6.40928 65.1689 6.40487L70.4189 6.20653C70.4447 6.20475 70.4694 6.19554 70.4901 6.18002C70.5108 6.16449 70.5266 6.14331 70.5355 6.11903L72.3439 1.20153C72.435 0.95224 72.6006 0.736977 72.8181 0.584889C73.0357 0.432802 73.2947 0.351236 73.5601 0.351236C73.8256 0.351236 74.0846 0.432802 74.3021 0.584889C74.5197 0.736977 74.6852 0.95224 74.7764 1.20153L76.5847 6.11903C76.5936 6.14331 76.6094 6.16449 76.6301 6.18002C76.6508 6.19554 76.6756 6.20475 76.7014 6.20653L81.9514 6.40487C82.2217 6.40928 82.4838 6.49818 82.7011 6.65911C82.9183 6.82004 83.0797 7.04491 83.1627 7.30221C83.2457 7.55951 83.2461 7.83633 83.1638 8.09386C83.0815 8.35138 82.9207 8.57669 82.7039 8.7382L78.5855 11.9757C78.5643 11.9914 78.5484 12.0133 78.5401 12.0383C78.5317 12.0634 78.5313 12.0904 78.5389 12.1157L79.968 17.1557C80.0182 17.349 80.0232 17.5513 79.9826 17.7468C79.942 17.9424 79.8569 18.126 79.7339 18.2833C79.611 18.4407 79.4534 18.5677 79.2735 18.6544C79.0936 18.741 78.8961 18.7851 78.6964 18.7832ZM73.5514 14.4549C73.8097 14.4628 74.0597 14.5481 74.2689 14.6999L78.6205 17.6165C78.6426 17.6333 78.6695 17.6425 78.6972 17.6427C78.7249 17.6429 78.7519 17.6342 78.7742 17.6178C78.7965 17.6013 78.8129 17.5782 78.821 17.5516C78.829 17.5251 78.8283 17.4967 78.8189 17.4707L77.3897 12.4307C77.3194 12.1835 77.3246 11.9208 77.4046 11.6766C77.4846 11.4323 77.6359 11.2175 77.8389 11.0599L81.9572 7.82237C81.9797 7.80659 81.9965 7.78402 82.0052 7.75798C82.0139 7.73194 82.014 7.70379 82.0055 7.67768C81.997 7.65157 81.9804 7.62887 81.958 7.61292C81.9357 7.59696 81.9088 7.58859 81.8814 7.58903L76.6314 7.3907C76.3743 7.38068 76.1261 7.29432 75.9183 7.14264C75.7105 6.99095 75.5526 6.78082 75.4647 6.53903L73.6564 1.62153C73.6482 1.59542 73.6319 1.5726 73.6099 1.5564C73.5879 1.54019 73.5612 1.53145 73.5339 1.53145C73.5065 1.53145 73.4799 1.54019 73.4578 1.5564C73.4358 1.5726 73.4195 1.59542 73.4114 1.62153L71.6205 6.5332C71.5327 6.77499 71.3748 6.98512 71.167 7.1368C70.9592 7.28849 70.7109 7.37485 70.4539 7.38487L65.2039 7.5832C65.1764 7.58276 65.1496 7.59113 65.1272 7.60708C65.1049 7.62304 65.0882 7.64574 65.0798 7.67185C65.0713 7.69796 65.0714 7.7261 65.0801 7.75214C65.0888 7.77818 65.1056 7.80075 65.128 7.81653L69.2522 11.0599C69.4546 11.2181 69.6054 11.4329 69.6853 11.677C69.7653 11.921 69.7709 12.1834 69.7014 12.4307L68.278 17.4707C68.2695 17.4959 68.2695 17.5233 68.2779 17.5485C68.2863 17.5738 68.3028 17.5956 68.3247 17.6107C68.3458 17.6288 68.3727 17.6387 68.4005 17.6387C68.4283 17.6387 68.4552 17.6288 68.4764 17.6107L72.828 14.694C73.0407 14.553 73.2903 14.4779 73.5455 14.4782L73.5514 14.4549Z" fill="#D6A323"/>
</svg>
