<svg width="105" height="21" viewBox="0 0 105 21" fill="none" xmlns="http://www.w3.org/2000/svg">
<path d="M100.184 20.0542C99.9259 20.0539 99.674 19.9767 99.4603 19.8325L95.1087 16.9158C95.0872 16.901 95.0618 16.8931 95.0358 16.8931C95.0097 16.8931 94.9843 16.901 94.9628 16.9158L90.6112 19.8325C90.3927 19.9784 90.1349 20.0544 89.8722 20.0504C89.6095 20.0463 89.3542 19.9625 89.1402 19.8099C88.9263 19.6574 88.7638 19.4434 88.6744 19.1963C88.585 18.9492 88.5728 18.6808 88.6395 18.4267L90.0687 13.3867C90.0754 13.3613 90.0746 13.3346 90.0663 13.3097C90.058 13.2848 90.0426 13.2629 90.022 13.2467L85.9037 10.0092C85.6869 9.84767 85.5261 9.62235 85.4438 9.36483C85.3615 9.10731 85.3619 8.83049 85.4448 8.57319C85.5278 8.31589 85.6892 8.09101 85.9065 7.93009C86.1237 7.76916 86.3859 7.68026 86.6562 7.67584L91.9062 7.47751C91.932 7.47573 91.9567 7.46652 91.9774 7.45099C91.9981 7.43547 92.0139 7.41429 92.0228 7.39001L93.8312 2.47251C93.9223 2.22322 94.0879 2.00795 94.3054 1.85587C94.523 1.70378 94.782 1.62221 95.0474 1.62221C95.3129 1.62221 95.5719 1.70378 95.7894 1.85587C96.007 2.00795 96.1725 2.22322 96.2637 2.47251L98.072 7.39001C98.0809 7.41429 98.0967 7.43547 98.1174 7.45099C98.1381 7.46652 98.1629 7.47573 98.1887 7.47751L103.439 7.67584C103.709 7.68026 103.971 7.76916 104.188 7.93009C104.406 8.09101 104.567 8.31589 104.65 8.57319C104.733 8.83049 104.733 9.10731 104.651 9.36483C104.569 9.62235 104.408 9.84767 104.191 10.0092L100.073 13.2467C100.052 13.2624 100.036 13.2842 100.027 13.3093C100.019 13.3344 100.019 13.3614 100.026 13.3867L101.455 18.4267C101.506 18.62 101.51 18.8223 101.47 19.0178C101.429 19.2134 101.344 19.3969 101.221 19.5543C101.098 19.7117 100.941 19.8387 100.761 19.9253C100.581 20.012 100.383 20.0561 100.184 20.0542ZM95.0387 15.7258C95.297 15.7337 95.547 15.8191 95.7562 15.9708L100.108 18.8875C100.13 18.9043 100.157 18.9134 100.184 18.9137C100.212 18.9139 100.239 18.9051 100.262 18.8887C100.284 18.8723 100.3 18.8491 100.308 18.8226C100.316 18.7961 100.316 18.7677 100.306 18.7417L98.877 13.7017C98.8067 13.4544 98.8119 13.1918 98.8919 12.9476C98.9719 12.7033 99.1232 12.4885 99.3262 12.3308L103.445 9.09334C103.467 9.07756 103.484 9.05499 103.492 9.02895C103.501 9.00291 103.501 8.97477 103.493 8.94866C103.484 8.92255 103.468 8.89985 103.445 8.88389C103.423 8.86794 103.396 8.85957 103.369 8.86001L98.1187 8.66168C97.8616 8.65166 97.6134 8.5653 97.4056 8.41361C97.1978 8.26193 97.0399 8.0518 96.952 7.81001L95.1437 2.89251C95.1355 2.8664 95.1192 2.84358 95.0972 2.82737C95.0752 2.81117 95.0485 2.80243 95.0212 2.80243C94.9938 2.80243 94.9672 2.81117 94.9451 2.82737C94.9231 2.84358 94.9068 2.8664 94.8987 2.89251L93.1078 7.80418C93.02 8.04596 92.8621 8.2561 92.6543 8.40778C92.4465 8.55946 92.1982 8.64582 91.9412 8.65584L86.6912 8.85418C86.6637 8.85373 86.6369 8.8621 86.6145 8.87806C86.5922 8.89402 86.5755 8.91672 86.5671 8.94283C86.5586 8.96894 86.5587 8.99708 86.5674 9.02312C86.5761 9.04916 86.5929 9.07173 86.6153 9.08751L90.7395 12.3308C90.9419 12.489 91.0927 12.7038 91.1726 12.9479C91.2526 13.192 91.2582 13.4544 91.1887 13.7017L89.7653 18.7417C89.7568 18.7669 89.7568 18.7942 89.7652 18.8195C89.7736 18.8448 89.7901 18.8666 89.812 18.8817C89.8331 18.8998 89.86 18.9097 89.8878 18.9097C89.9157 18.9097 89.9425 18.8998 89.9637 18.8817L94.3153 15.965C94.528 15.8239 94.7776 15.7488 95.0328 15.7492L95.0387 15.7258Z" fill="#D6A323"/>
<path d="M66.794 18.8803C66.7612 19.0208 66.7606 19.167 66.7923 19.3078C66.824 19.4487 66.8871 19.5805 66.977 19.6934C67.0669 19.8064 67.1812 19.8975 67.3113 19.96C67.4415 20.0225 67.584 20.0547 67.7284 20.0542C67.9177 20.0543 68.1028 19.9983 68.2603 19.8932L73.4784 16.4145L78.6965 19.8932C78.8597 20.0016 79.0523 20.0574 79.2482 20.0531C79.444 20.0488 79.6339 19.9846 79.7923 19.8692C79.9506 19.7538 80.0698 19.5926 80.1338 19.4074C80.1978 19.2222 80.2036 19.0219 80.1503 18.8333L78.3975 12.7L82.7445 8.78806C82.8837 8.6627 82.9832 8.49928 83.0305 8.31801C83.0778 8.13674 83.071 7.94557 83.0108 7.76815C82.9507 7.59072 82.8398 7.43482 82.692 7.31973C82.5442 7.20463 82.3658 7.13539 82.1791 7.12056L76.7156 6.68548L74.3514 1.45202C74.2761 1.28346 74.1537 1.1403 73.9988 1.0398C73.8439 0.939308 73.6633 0.88578 73.4787 0.885679C73.2941 0.885578 73.1134 0.938907 72.9584 1.03923C72.8034 1.13956 72.6808 1.28259 72.6053 1.45106L70.2411 6.68548L64.7777 7.11961C64.5941 7.13415 64.4186 7.20127 64.2722 7.31293C64.1258 7.4246 64.0146 7.57608 63.9521 7.74926C63.8895 7.92244 63.8781 8.10998 63.9193 8.28945C63.9605 8.46891 64.0526 8.63271 64.1845 8.76123L68.2229 12.6971L66.794 18.8803ZM73.4784 4.17369L75.4353 8.50631L75.9988 8.55136L79.8063 8.85323L76.6715 11.6746L76.6706 11.6765L76.2269 12.0751L76.3908 12.6473V12.6501L77.5915 16.8524L73.4784 14.1106V4.17369Z" fill="#D6A323"/>
<path d="M40.0645 7.28256L34.3617 6.45375L31.8124 1.28549C31.7427 1.14399 31.6282 1.02944 31.4867 0.959808C31.1318 0.784613 30.7005 0.930609 30.5231 1.28549L27.9738 6.45375L22.271 7.28256C22.1137 7.30502 21.97 7.37914 21.8599 7.49145C21.7269 7.62821 21.6535 7.81219 21.6561 8.00298C21.6586 8.19377 21.7368 8.37574 21.8734 8.50893L25.9995 12.5317L25.0247 18.2121C25.0018 18.3442 25.0164 18.4801 25.0669 18.6043C25.1173 18.7286 25.2016 18.8362 25.3101 18.915C25.4186 18.9938 25.547 19.0407 25.6807 19.0502C25.8145 19.0597 25.9483 19.0316 26.0668 18.969L31.1677 16.2872L36.2686 18.969C36.4079 19.0431 36.5696 19.0678 36.7246 19.0409C37.1154 18.9735 37.3782 18.6029 37.3108 18.2121L36.336 12.5317L40.4621 8.50893C40.5744 8.39887 40.6485 8.25512 40.671 8.09789C40.7316 7.70483 40.4576 7.34096 40.0645 7.28256Z" fill="#D6A323"/>
<path d="M18.9084 7.28256L13.2056 6.45375L10.6563 1.28549C10.5867 1.14399 10.4721 1.02944 10.3306 0.959808C9.97573 0.784613 9.54447 0.930609 9.36703 1.28549L6.81772 6.45375L1.11488 7.28256C0.957658 7.30502 0.813908 7.37914 0.703849 7.49145C0.570794 7.62821 0.497475 7.81219 0.500002 8.00298C0.502529 8.19377 0.580696 8.37574 0.717326 8.50893L4.8434 12.5317L3.8686 18.2121C3.84574 18.3442 3.86036 18.4801 3.9108 18.6043C3.96125 18.7286 4.0455 18.8362 4.154 18.915C4.26251 18.9938 4.39092 19.0407 4.52468 19.0502C4.65844 19.0597 4.7922 19.0316 4.91078 18.969L10.0117 16.2872L15.1125 18.969C15.2518 19.0431 15.4135 19.0678 15.5685 19.0409C15.9593 18.9735 16.2221 18.6029 16.1547 18.2121L15.1799 12.5317L19.306 8.50893C19.4183 8.39887 19.4924 8.25512 19.5149 8.09789C19.5755 7.70483 19.3015 7.34096 18.9084 7.28256Z" fill="#D6A323"/>
<path d="M60.4766 7.28256L54.7738 6.45375L52.2245 1.28549C52.1548 1.14399 52.0403 1.02944 51.8988 0.959808C51.5439 0.784613 51.1127 0.930609 50.9352 1.28549L48.3859 6.45375L42.6831 7.28256C42.5258 7.30502 42.3821 7.37914 42.272 7.49145C42.139 7.62821 42.0657 7.81219 42.0682 8.00298C42.0707 8.19377 42.1489 8.37574 42.2855 8.50893L46.4116 12.5317L45.4368 18.2121C45.4139 18.3442 45.4285 18.4801 45.479 18.6043C45.5294 18.7286 45.6137 18.8362 45.7222 18.915C45.8307 18.9938 45.9591 19.0407 46.0929 19.0502C46.2266 19.0597 46.3604 19.0316 46.479 18.969L51.5798 16.2872L56.6807 18.969C56.82 19.0431 56.9817 19.0678 57.1367 19.0409C57.5275 18.9735 57.7903 18.6029 57.7229 18.2121L56.7481 12.5317L60.8742 8.50893C60.9865 8.39887 61.0606 8.25512 61.0831 8.09789C61.1437 7.70483 60.8697 7.34096 60.4766 7.28256Z" fill="#D6A323"/>
</svg>
