<svg width="103" height="20" viewBox="0 0 103 20" fill="none" xmlns="http://www.w3.org/2000/svg">
<path d="M39.4319 7.56468L33.729 6.73588L31.1797 1.56761C31.1101 1.42611 30.9955 1.31156 30.854 1.24193C30.4992 1.06673 30.0679 1.21273 29.8905 1.56761L27.3412 6.73588L21.6383 7.56468C21.4811 7.58715 21.3373 7.66127 21.2273 7.77357C21.0942 7.91033 21.0209 8.09431 21.0234 8.2851C21.026 8.47589 21.1041 8.65787 21.2408 8.79105L25.3668 12.8138L24.392 18.4942C24.3692 18.6263 24.3838 18.7622 24.4342 18.8865C24.4847 19.0107 24.5689 19.1183 24.6774 19.1971C24.7859 19.276 24.9144 19.3228 25.0481 19.3323C25.1819 19.3419 25.3156 19.3137 25.4342 19.2511L30.5351 16.5693L35.636 19.2511C35.7752 19.3252 35.937 19.3499 36.0919 19.323C36.4828 19.2556 36.7456 18.885 36.6782 18.4942L35.7034 12.8138L39.8294 8.79105C39.9417 8.68099 40.0159 8.53724 40.0383 8.38002C40.099 7.98695 39.8249 7.62308 39.4319 7.56468Z" fill="#D6A323"/>
<path d="M18.4085 7.56468L12.7057 6.73588L10.1564 1.56761C10.0867 1.42611 9.97217 1.31156 9.83067 1.24193C9.47579 1.06673 9.04454 1.21273 8.86709 1.56761L6.31778 6.73588L0.614945 7.56468C0.457719 7.58715 0.313969 7.66127 0.20391 7.77357C0.0708555 7.91033 -0.00246376 8.09431 6.32184e-05 8.2851C0.0025902 8.47589 0.0807566 8.65787 0.217387 8.79105L4.34346 12.8138L3.36866 18.4942C3.3458 18.6263 3.36042 18.7622 3.41087 18.8865C3.46131 19.0107 3.54556 19.1183 3.65406 19.1971C3.76257 19.276 3.89098 19.3228 4.02474 19.3323C4.1585 19.3419 4.29226 19.3137 4.41084 19.2511L9.51172 16.5693L14.6126 19.2511C14.7519 19.3252 14.9136 19.3499 15.0686 19.323C15.4594 19.2556 15.7222 18.885 15.6548 18.4942L14.68 12.8138L18.8061 8.79105C18.9184 8.68099 18.9925 8.53724 19.0149 8.38002C19.0756 7.98695 18.8016 7.62308 18.4085 7.56468Z" fill="#D6A323"/>
<path d="M81.4786 7.56468L75.7758 6.73588L73.2265 1.56761C73.1569 1.42611 73.0423 1.31156 72.9008 1.24193C72.5459 1.06673 72.1147 1.21273 71.9372 1.56761L69.3879 6.73588L63.6851 7.56468C63.5278 7.58715 63.3841 7.66127 63.274 7.77357C63.141 7.91033 63.0677 8.09431 63.0702 8.2851C63.0727 8.47589 63.1509 8.65787 63.2875 8.79105L67.4136 12.8138L66.4388 18.4942C66.4159 18.6263 66.4305 18.7622 66.481 18.8865C66.5314 19.0107 66.6157 19.1183 66.7242 19.1971C66.8327 19.276 66.9611 19.3228 67.0949 19.3323C67.2286 19.3419 67.3624 19.3137 67.481 19.2511L72.5819 16.5693L77.6827 19.2511C77.822 19.3252 77.9837 19.3499 78.1387 19.323C78.5295 19.2556 78.7923 18.885 78.7249 18.4942L77.7501 12.8138L81.8762 8.79105C81.9885 8.68099 82.0626 8.53724 82.0851 8.38002C82.1457 7.98695 81.8717 7.62308 81.4786 7.56468Z" fill="#D6A323"/>
<path d="M60.4553 7.56468L54.7524 6.73588L52.2031 1.56761C52.1335 1.42611 52.0189 1.31156 51.8774 1.24193C51.5225 1.06673 51.0913 1.21273 50.9138 1.56761L48.3645 6.73588L42.6617 7.56468C42.5045 7.58715 42.3607 7.66127 42.2507 7.77357C42.1176 7.91033 42.0443 8.09431 42.0468 8.2851C42.0493 8.47589 42.1275 8.65787 42.2641 8.79105L46.3902 12.8138L45.4154 18.4942C45.3925 18.6263 45.4072 18.7622 45.4576 18.8865C45.5081 19.0107 45.5923 19.1183 45.7008 19.1971C45.8093 19.276 45.9377 19.3228 46.0715 19.3323C46.2053 19.3419 46.339 19.3137 46.4576 19.2511L51.5585 16.5693L56.6594 19.2511C56.7986 19.3252 56.9603 19.3499 57.1153 19.323C57.5061 19.2556 57.7689 18.885 57.7015 18.4942L56.7267 12.8138L60.8528 8.79105C60.9651 8.68099 61.0392 8.53724 61.0617 8.38002C61.1223 7.98695 60.8483 7.62308 60.4553 7.56468Z" fill="#D6A323"/>
<path d="M98.4656 19.3341C98.2078 19.3338 97.9559 19.2566 97.7423 19.1124L93.3906 16.1957C93.3692 16.1809 93.3437 16.173 93.3177 16.173C93.2916 16.173 93.2662 16.1809 93.2448 16.1957L88.8931 19.1124C88.6746 19.2583 88.4168 19.3343 88.1541 19.3303C87.8914 19.3262 87.6361 19.2424 87.4222 19.0898C87.2082 18.9373 87.0457 18.7233 86.9563 18.4762C86.8669 18.2291 86.8547 17.9607 86.9214 17.7066L88.3506 12.6666C88.3574 12.6412 88.3565 12.6145 88.3482 12.5896C88.3399 12.5647 88.3245 12.5428 88.3039 12.5266L84.1856 9.28907C83.9688 9.12756 83.808 8.90225 83.7257 8.64473C83.6434 8.38721 83.6438 8.11039 83.7268 7.85309C83.8097 7.59579 83.9712 7.37091 84.1884 7.20998C84.4056 7.04906 84.6678 6.96016 84.9381 6.95574L90.1881 6.75741C90.2139 6.75563 90.2387 6.74642 90.2594 6.73089C90.2801 6.71537 90.2958 6.69419 90.3048 6.66991L92.1131 1.75241C92.2042 1.50311 92.3698 1.28785 92.5873 1.13576C92.8049 0.983676 93.0639 0.902111 93.3293 0.902111C93.5948 0.902111 93.8538 0.983676 94.0714 1.13576C94.2889 1.28785 94.4544 1.50311 94.5456 1.75241L96.3539 6.66991C96.3629 6.69419 96.3786 6.71537 96.3993 6.73089C96.42 6.74642 96.4448 6.75563 96.4706 6.75741L101.721 6.95574C101.991 6.96016 102.253 7.04906 102.47 7.20998C102.688 7.37091 102.849 7.59579 102.932 7.85309C103.015 8.11039 103.015 8.38721 102.933 8.64473C102.851 8.90225 102.69 9.12756 102.473 9.28907L98.3548 12.5266C98.3335 12.5423 98.3176 12.5641 98.3093 12.5892C98.3009 12.6143 98.3005 12.6413 98.3081 12.6666L99.7373 17.7066C99.7874 17.8999 99.7924 18.1022 99.7518 18.2977C99.7112 18.4933 99.6261 18.6768 99.5032 18.8342C99.3802 18.9916 99.2226 19.1185 99.0427 19.2052C98.8628 19.2919 98.6653 19.336 98.4656 19.3341ZM93.3206 15.0057C93.5789 15.0136 93.8289 15.099 94.0381 15.2507L98.3898 18.1674C98.4118 18.1842 98.4387 18.1933 98.4664 18.1936C98.4941 18.1938 98.5211 18.185 98.5434 18.1686C98.5658 18.1522 98.5822 18.129 98.5902 18.1025C98.5983 18.076 98.5975 18.0476 98.5881 18.0216L97.1589 12.9816C97.0886 12.7343 97.0938 12.4717 97.1738 12.2275C97.2539 11.9832 97.4051 11.7684 97.6081 11.6107L101.726 8.37324C101.749 8.35746 101.766 8.33489 101.774 8.30885C101.783 8.28281 101.783 8.25467 101.775 8.22856C101.766 8.20245 101.75 8.17975 101.727 8.16379C101.705 8.14784 101.678 8.13946 101.651 8.13991L96.4006 7.94157C96.1435 7.93155 95.8953 7.8452 95.6875 7.69351C95.4797 7.54183 95.3218 7.33169 95.2339 7.08991L93.4256 2.17241C93.4174 2.1463 93.4012 2.12348 93.3791 2.10727C93.3571 2.09107 93.3305 2.08233 93.3031 2.08233C93.2757 2.08233 93.2491 2.09107 93.2271 2.10727C93.205 2.12348 93.1888 2.1463 93.1806 2.17241L91.3898 7.08407C91.3019 7.32586 91.144 7.536 90.9362 7.68768C90.7284 7.83936 90.4802 7.92572 90.2231 7.93574L84.9731 8.13407C84.9456 8.13363 84.9188 8.142 84.8964 8.15796C84.8741 8.17392 84.8575 8.19662 84.849 8.22272C84.8405 8.24883 84.8406 8.27698 84.8493 8.30302C84.858 8.32906 84.8748 8.35163 84.8973 8.36741L89.0214 11.6107C89.2238 11.7689 89.3746 11.9837 89.4546 12.2278C89.5345 12.4719 89.5401 12.7343 89.4706 12.9816L88.0473 18.0216C88.0388 18.0468 88.0387 18.0741 88.0472 18.0994C88.0556 18.1247 88.072 18.1465 88.0939 18.1616C88.1151 18.1796 88.142 18.1896 88.1698 18.1896C88.1976 18.1896 88.2245 18.1796 88.2456 18.1616L92.5973 15.2449C92.8099 15.1038 93.0596 15.0287 93.3148 15.0291L93.3206 15.0057Z" fill="#D6A323"/>
</svg>
