<svg width="103" height="20" viewBox="0 0 103 20" fill="none" xmlns="http://www.w3.org/2000/svg">
<path d="M86.5632 18.1948C86.5304 18.3354 86.5298 18.4815 86.5615 18.6223C86.5932 18.7632 86.6564 18.895 86.7463 19.0079C86.8361 19.1209 86.9504 19.212 87.0806 19.2745C87.2107 19.337 87.3533 19.3692 87.4976 19.3687C87.6869 19.3688 87.872 19.3128 88.0295 19.2077L93.2476 15.729L98.4657 19.2077C98.629 19.3161 98.8215 19.3719 99.0174 19.3676C99.2133 19.3633 99.4032 19.2991 99.5615 19.1837C99.7198 19.0683 99.839 18.9071 99.903 18.7219C99.967 18.5367 99.9728 18.3364 99.9195 18.1478L98.1667 12.0145L102.514 8.10258C102.653 7.97722 102.752 7.8138 102.8 7.63253C102.847 7.45126 102.84 7.26009 102.78 7.08266C102.72 6.90524 102.609 6.74934 102.461 6.63424C102.313 6.51915 102.135 6.4499 101.948 6.43508L96.4849 5.99999L94.1206 0.766535C94.0454 0.597976 93.9229 0.45481 93.768 0.354316C93.6132 0.253821 93.4325 0.200293 93.2479 0.200192C93.0633 0.20009 92.8826 0.25342 92.7276 0.353745C92.5727 0.454069 92.45 0.597101 92.3746 0.765577L90.0104 5.99999L84.5469 6.43412C84.3633 6.44866 84.1878 6.51578 84.0414 6.62744C83.895 6.73911 83.7839 6.89059 83.7213 7.06377C83.6587 7.23695 83.6473 7.42449 83.6886 7.60396C83.7298 7.78343 83.8218 7.94722 83.9537 8.07574L87.9921 12.0116L86.5632 18.1948ZM93.2476 3.4882L95.2045 7.82083L95.768 7.86587L99.5755 8.16774L96.4408 10.9891L96.4398 10.991L95.9961 11.3897L96.16 11.9618V11.9647L97.3608 16.167L93.2476 13.4252V3.4882Z" fill="#D6A323"/>
<path d="M39.5646 7.09913L33.8617 6.27032L31.3124 1.10206C31.2428 0.960553 31.1282 0.846002 30.9867 0.776373C30.6319 0.601178 30.2006 0.747174 30.0232 1.10206L27.4738 6.27032L21.771 7.09913C21.6138 7.12159 21.47 7.19571 21.36 7.30801C21.2269 7.44477 21.1536 7.62876 21.1561 7.81954C21.1587 8.01033 21.2368 8.19231 21.3735 8.32549L25.4995 12.3482L24.5247 18.0286C24.5019 18.1608 24.5165 18.2967 24.5669 18.4209C24.6174 18.5452 24.7016 18.6528 24.8101 18.7316C24.9186 18.8104 25.047 18.8572 25.1808 18.8668C25.3146 18.8763 25.4483 18.8482 25.5669 18.7856L30.6678 16.1037L35.7687 18.7856C35.9079 18.8597 36.0696 18.8844 36.2246 18.8574C36.6154 18.79 36.8782 18.4194 36.8109 18.0286L35.8361 12.3482L39.9621 8.32549C40.0744 8.21544 40.1486 8.07169 40.171 7.91446C40.2317 7.52139 39.9576 7.15753 39.5646 7.09913Z" fill="#D6A323"/>
<path d="M18.4085 7.09913L12.7057 6.27032L10.1564 1.10206C10.0867 0.960553 9.97217 0.846002 9.83067 0.776373C9.47579 0.601178 9.04454 0.747174 8.86709 1.10206L6.31778 6.27032L0.614945 7.09913C0.457719 7.12159 0.313969 7.19571 0.20391 7.30801C0.0708555 7.44477 -0.00246376 7.62876 6.32184e-05 7.81954C0.0025902 8.01033 0.0807566 8.19231 0.217387 8.32549L4.34346 12.3482L3.36866 18.0286C3.3458 18.1608 3.36042 18.2967 3.41087 18.4209C3.46131 18.5452 3.54556 18.6528 3.65406 18.7316C3.76257 18.8104 3.89098 18.8572 4.02474 18.8668C4.1585 18.8763 4.29226 18.8482 4.41084 18.7856L9.51172 16.1037L14.6126 18.7856C14.7519 18.8597 14.9136 18.8844 15.0686 18.8574C15.4594 18.79 15.7222 18.4194 15.6548 18.0286L14.68 12.3482L18.8061 8.32549C18.9184 8.21544 18.9925 8.07169 19.0149 7.91446C19.0756 7.52139 18.8016 7.15753 18.4085 7.09913Z" fill="#D6A323"/>
<path d="M81.1327 7.09913L75.4299 6.27032L72.8806 1.10206C72.811 0.960553 72.6964 0.846002 72.5549 0.776373C72.2 0.601178 71.7688 0.747174 71.5913 1.10206L69.042 6.27032L63.3392 7.09913C63.182 7.12159 63.0382 7.19571 62.9282 7.30801C62.7951 7.44477 62.7218 7.62876 62.7243 7.81954C62.7268 8.01033 62.805 8.19231 62.9416 8.32549L67.0677 12.3482L66.0929 18.0286C66.07 18.1608 66.0847 18.2967 66.1351 18.4209C66.1856 18.5452 66.2698 18.6528 66.3783 18.7316C66.4868 18.8104 66.6152 18.8572 66.749 18.8668C66.8827 18.8763 67.0165 18.8482 67.1351 18.7856L72.236 16.1037L77.3368 18.7856C77.4761 18.8597 77.6378 18.8844 77.7928 18.8574C78.1836 18.79 78.4464 18.4194 78.379 18.0286L77.4042 12.3482L81.5303 8.32549C81.6426 8.21544 81.7167 8.07169 81.7392 7.91446C81.7998 7.52139 81.5258 7.15753 81.1327 7.09913Z" fill="#D6A323"/>
<path d="M59.9767 7.09913L54.2738 6.27032L51.7245 1.10206C51.6549 0.960553 51.5403 0.846002 51.3988 0.776373C51.044 0.601178 50.6127 0.747174 50.4353 1.10206L47.886 6.27032L42.1831 7.09913C42.0259 7.12159 41.8821 7.19571 41.7721 7.30801C41.639 7.44477 41.5657 7.62876 41.5682 7.81954C41.5708 8.01033 41.6489 8.19231 41.7856 8.32549L45.9116 12.3482L44.9368 18.0286C44.914 18.1608 44.9286 18.2967 44.979 18.4209C45.0295 18.5452 45.1137 18.6528 45.2222 18.7316C45.3307 18.8104 45.4592 18.8572 45.5929 18.8668C45.7267 18.8763 45.8604 18.8482 45.979 18.7856L51.0799 16.1037L56.1808 18.7856C56.32 18.8597 56.4818 18.8844 56.6367 18.8574C57.0276 18.79 57.2903 18.4194 57.223 18.0286L56.2482 12.3482L60.3742 8.32549C60.4865 8.21544 60.5607 8.07169 60.5831 7.91446C60.6438 7.52139 60.3697 7.15753 59.9767 7.09913Z" fill="#D6A323"/>
</svg>
