<svg width="103" height="19" viewBox="0 0 103 19" fill="none" xmlns="http://www.w3.org/2000/svg">
<path d="M39.5646 7.1333L33.8617 6.30449L31.3124 1.13623C31.2428 0.994729 31.1282 0.880178 30.9867 0.810549C30.6319 0.635354 30.2006 0.78135 30.0232 1.13623L27.4738 6.30449L21.771 7.1333C21.6138 7.15576 21.47 7.22989 21.36 7.34219C21.2269 7.47895 21.1536 7.66293 21.1561 7.85372C21.1587 8.04451 21.2368 8.22649 21.3735 8.35967L25.4995 12.3824L24.5247 18.0628C24.5019 18.1949 24.5165 18.3308 24.5669 18.4551C24.6174 18.5793 24.7016 18.687 24.8101 18.7658C24.9186 18.8446 25.047 18.8914 25.1808 18.9009C25.3146 18.9105 25.4483 18.8823 25.5669 18.8197L30.6678 16.1379L35.7687 18.8197C35.9079 18.8939 36.0696 18.9186 36.2246 18.8916C36.6154 18.8242 36.8782 18.4536 36.8109 18.0628L35.8361 12.3824L39.9621 8.35967C40.0744 8.24961 40.1486 8.10586 40.171 7.94864C40.2317 7.55557 39.9576 7.1917 39.5646 7.1333Z" fill="#D6A323"/>
<path d="M18.4085 7.1333L12.7057 6.30449L10.1564 1.13623C10.0867 0.994729 9.97217 0.880178 9.83067 0.810549C9.47579 0.635354 9.04454 0.78135 8.86709 1.13623L6.31778 6.30449L0.614945 7.1333C0.457719 7.15576 0.313969 7.22989 0.20391 7.34219C0.0708555 7.47895 -0.00246376 7.66293 6.32184e-05 7.85372C0.0025902 8.04451 0.0807566 8.22649 0.217387 8.35967L4.34346 12.3824L3.36866 18.0628C3.3458 18.1949 3.36042 18.3308 3.41087 18.4551C3.46131 18.5793 3.54556 18.687 3.65406 18.7658C3.76257 18.8446 3.89098 18.8914 4.02474 18.9009C4.1585 18.9105 4.29226 18.8823 4.41084 18.8197L9.51172 16.1379L14.6126 18.8197C14.7519 18.8939 14.9136 18.9186 15.0686 18.8916C15.4594 18.8242 15.7222 18.4536 15.6548 18.0628L14.68 12.3824L18.8061 8.35967C18.9184 8.24961 18.9925 8.10586 19.0149 7.94864C19.0756 7.55557 18.8016 7.1917 18.4085 7.1333Z" fill="#D6A323"/>
<path d="M81.1327 7.1333L75.4299 6.30449L72.8806 1.13623C72.811 0.994729 72.6964 0.880178 72.5549 0.810549C72.2 0.635354 71.7688 0.78135 71.5913 1.13623L69.042 6.30449L63.3392 7.1333C63.182 7.15576 63.0382 7.22989 62.9282 7.34219C62.7951 7.47895 62.7218 7.66293 62.7243 7.85372C62.7268 8.04451 62.805 8.22649 62.9416 8.35967L67.0677 12.3824L66.0929 18.0628C66.07 18.1949 66.0847 18.3308 66.1351 18.4551C66.1856 18.5793 66.2698 18.687 66.3783 18.7658C66.4868 18.8446 66.6152 18.8914 66.749 18.9009C66.8827 18.9105 67.0165 18.8823 67.1351 18.8197L72.236 16.1379L77.3368 18.8197C77.4761 18.8939 77.6378 18.9186 77.7928 18.8916C78.1836 18.8242 78.4464 18.4536 78.379 18.0628L77.4042 12.3824L81.5303 8.35967C81.6426 8.24961 81.7167 8.10586 81.7392 7.94864C81.7998 7.55557 81.5258 7.1917 81.1327 7.1333Z" fill="#D6A323"/>
<path d="M101.545 7.1333L95.8423 6.30449L93.2929 1.13623C93.2233 0.994729 93.1088 0.880178 92.9673 0.810549C92.6124 0.635354 92.1811 0.78135 92.0037 1.13623L89.4544 6.30449L83.7515 7.1333C83.5943 7.15576 83.4506 7.22989 83.3405 7.34219C83.2075 7.47895 83.1341 7.66293 83.1367 7.85372C83.1392 8.04451 83.2174 8.22649 83.354 8.35967L87.4801 12.3824L86.5053 18.0628C86.4824 18.1949 86.497 18.3308 86.5475 18.4551C86.5979 18.5793 86.6822 18.687 86.7907 18.7658C86.8992 18.8446 87.0276 18.8914 87.1613 18.9009C87.2951 18.9105 87.4289 18.8823 87.5474 18.8197L92.6483 16.1379L97.7492 18.8197C97.8885 18.8939 98.0502 18.9186 98.2052 18.8916C98.596 18.8242 98.8588 18.4536 98.7914 18.0628L97.8166 12.3824L101.943 8.35967C102.055 8.24961 102.129 8.10586 102.152 7.94864C102.212 7.55557 101.938 7.1917 101.545 7.1333Z" fill="#D6A323"/>
<path d="M59.9767 7.1333L54.2738 6.30449L51.7245 1.13623C51.6549 0.994729 51.5403 0.880178 51.3988 0.810549C51.044 0.635354 50.6127 0.78135 50.4353 1.13623L47.886 6.30449L42.1831 7.1333C42.0259 7.15576 41.8821 7.22989 41.7721 7.34219C41.639 7.47895 41.5657 7.66293 41.5682 7.85372C41.5708 8.04451 41.6489 8.22649 41.7856 8.35967L45.9116 12.3824L44.9368 18.0628C44.914 18.1949 44.9286 18.3308 44.979 18.4551C45.0295 18.5793 45.1137 18.687 45.2222 18.7658C45.3307 18.8446 45.4592 18.8914 45.5929 18.9009C45.7267 18.9105 45.8604 18.8823 45.979 18.8197L51.0799 16.1379L56.1808 18.8197C56.32 18.8939 56.4818 18.9186 56.6367 18.8916C57.0276 18.8242 57.2903 18.4536 57.223 18.0628L56.2482 12.3824L60.3742 8.35967C60.4865 8.24961 60.5607 8.10586 60.5831 7.94864C60.6438 7.55557 60.3697 7.1917 59.9767 7.1333Z" fill="#D6A323"/>
</svg>
