<svg viewBox="0 0 169 133" fill="none" xmlns="http://www.w3.org/2000/svg">
<path d="M66.2883 104H12.7883V34.4H39.8883C45.6883 34.4 50.4216 35.4333 54.0883 37.5C57.6883 39.5 60.4883 42.2333 62.4883 45.7C64.4883 49.1667 65.4883 53 65.4883 57.2C65.4883 62.4 63.8883 67.0667 60.6883 71.2C57.4883 75.2667 53.455 77.9667 48.5883 79.3L66.2883 104ZM19.0883 38.1L46.2883 76.1C50.755 75.1667 54.455 72.9333 57.3883 69.4C60.3216 65.8667 61.7883 61.8 61.7883 57.2C61.7883 53.5333 60.8883 50.2 59.0883 47.2C57.2883 44.2 54.755 41.9 51.4883 40.3C48.555 38.8333 44.7216 38.1 39.9883 38.1H19.0883ZM16.4883 40.5V76.4H42.1883L16.4883 40.5ZM16.4883 100.3H59.2883L44.6883 80L41.5883 80.1H16.4883V100.3Z" fill="white"/>
<path d="M68.7157 34.3H72.7157L97.0157 77.3L121.216 34.3H124.916V103.9H68.7157V34.3ZM72.4157 100.3H121.216V41.8L98.7157 81.4H95.2157L72.4157 41.2V100.3Z" fill="white"/>
<path d="M128.127 104V34.16H132.201V99.926H166.927V104H128.127Z" fill="white"/>
</svg>
