<svg fill="none" xmlns="http://www.w3.org/2000/svg" viewBox="0.88 0.43 201.58 69.75">
<path d="M54.4064 70.1666H0.906385V0.566561H28.0064C33.8064 0.566561 38.5397 1.59989 42.2064 3.66656C45.8064 5.66656 48.6064 8.39989 50.6064 11.8666C52.6064 15.3332 53.6064 19.1666 53.6064 23.3666C53.6064 28.5666 52.0064 33.2332 48.8064 37.3666C45.6064 41.4332 41.5731 44.1332 36.7064 45.4666L54.4064 70.1666ZM7.20638 4.26656L34.4064 42.2666C38.8731 41.3332 42.5731 39.0999 45.5064 35.5666C48.4397 32.0332 49.9064 27.9666 49.9064 23.3666C49.9064 19.6999 49.0064 16.3666 47.2064 13.3666C45.4064 10.3666 42.8731 8.06656 39.6064 6.46656C36.6731 4.99989 32.8397 4.26656 28.1064 4.26656H7.20638ZM4.60639 6.66656V42.5666H30.3064L4.60639 6.66656ZM4.60639 66.4666H47.4064L32.8064 46.1666L29.7064 46.2666H4.60639V66.4666ZM71.5298 0.466562H75.5298L99.8298 43.4666L124.03 0.466562H127.73V70.0666H71.5298V0.466562ZM75.2298 66.4666H124.03V7.96656L101.53 47.5666H98.0298L75.2298 7.36656V66.4666ZM202.453 70.1666H148.953V0.566561H176.053C181.853 0.566561 186.587 1.59989 190.253 3.66656C193.853 5.66656 196.653 8.39989 198.653 11.8666C200.653 15.3332 201.653 19.1666 201.653 23.3666C201.653 28.5666 200.053 33.2332 196.853 37.3666C193.653 41.4332 189.62 44.1332 184.753 45.4666L202.453 70.1666ZM155.253 4.26656L182.453 42.2666C186.92 41.3332 190.62 39.0999 193.553 35.5666C196.487 32.0332 197.953 27.9666 197.953 23.3666C197.953 19.6999 197.053 16.3666 195.253 13.3666C193.453 10.3666 190.92 8.06656 187.653 6.46656C184.72 4.99989 180.887 4.26656 176.153 4.26656H155.253ZM152.653 6.66656V42.5666H178.353L152.653 6.66656ZM152.653 66.4666H195.453L180.853 46.1666L177.753 46.2666H152.653V66.4666Z" fill="white"/>
</svg>